<svg width="151" height="147" viewBox="0 0 151 147" fill="none" xmlns="http://www.w3.org/2000/svg">
<g clip-path="url(#clip0_201_1086)">
<path d="M37.288 108.813H23.6619V112.798H37.288V108.813Z" fill="#F4F4F4"/>
<path opacity="0.05" d="M27.2771 108.813H25.4917V112.798H27.2771V108.813Z" fill="#292A2E"/>
<path d="M35.547 109.679H28.123V112.041H35.547V109.679Z" fill="white"/>
<path d="M48.1566 109.333L35.4956 103.774L33.9087 107.426L46.5697 112.985L48.1566 109.333Z" fill="#F4F4F4"/>
<path opacity="0.05" d="M48.1566 109.333L35.4956 103.774L33.9087 107.426L46.5697 112.985L48.1566 109.333Z" fill="#292A2E"/>
<path d="M46.4564 108.586L44.7974 107.858L43.2105 111.51L44.8695 112.238L46.4564 108.586Z" fill="white"/>
<path d="M43.6666 108.306L36.7686 105.278L35.8282 107.442L42.7262 110.471L43.6666 108.306Z" fill="white"/>
<path d="M51.3195 112.985H6.60791V159.222H51.3195V112.985Z" fill="#F4F4F4"/>
<path opacity="0.03" d="M51.3195 112.985H6.60791V159.222H51.3195V112.985Z" fill="#292A2E"/>
<path d="M59.6051 112.985H14.8936V159.222H59.6051V112.985Z" fill="#F4F4F4"/>
<path opacity="0.7" d="M57.9268 115.151H16.572V124.034H57.9268V115.151Z" fill="#C1E6BB"/>
<path opacity="0.7" d="M57.9268 126.208H16.572V135.091H57.9268V126.208Z" fill="#C1E6BB"/>
<path opacity="0.7" d="M57.9268 137.265H16.572V146.148H57.9268V137.265Z" fill="#C1E6BB"/>
<path opacity="0.05" d="M37.2497 120.835C37.9325 120.835 38.4861 120.279 38.4861 119.592C38.4861 118.906 37.9325 118.349 37.2497 118.349C36.5668 118.349 36.0132 118.906 36.0132 119.592C36.0132 120.279 36.5668 120.835 37.2497 120.835Z" fill="#292A2E"/>
<path opacity="0.05" d="M37.2497 131.892C37.9325 131.892 38.4861 131.336 38.4861 130.649C38.4861 129.963 37.9325 129.406 37.2497 129.406C36.5668 129.406 36.0132 129.963 36.0132 130.649C36.0132 131.336 36.5668 131.892 37.2497 131.892Z" fill="#292A2E"/>
<path opacity="0.05" d="M37.2497 142.95C37.9325 142.95 38.4861 142.393 38.4861 141.707C38.4861 141.02 37.9325 140.464 37.2497 140.464C36.5668 140.464 36.0132 141.02 36.0132 141.707C36.0132 142.393 36.5668 142.95 37.2497 142.95Z" fill="#292A2E"/>
<path d="M22.4795 67.0923H48.9177L48.9177 32.5H22.4795L22.4795 67.0923Z" fill="#F4F4F4"/>
<path d="M22.4797 32.5H21.6221V67.0923H22.4797V32.5Z" fill="#F4F4F4"/>
<path opacity="0.05" d="M22.4797 32.5H21.6221V67.0923H22.4797V32.5Z" fill="#292A2E"/>
<path opacity="0.05" d="M27.2958 60.7908H44.1018V38.8013H27.2958L27.2958 60.7908Z" fill="#292A2E"/>
<path opacity="0.03" d="M27.2958 60.7908H28.1716L28.1716 38.8013H27.2958L27.2958 60.7908Z" fill="#292A2E"/>
<path d="M0.857391 97.5338H22.4795L22.4795 75.599H0.857391L0.857391 97.5338Z" fill="#D1EBCD"/>
<path opacity="0.05" d="M4.79621 93.5381H18.5408V79.5948H4.79621L4.79621 93.5381Z" fill="#292A2E"/>
<path d="M0.857678 75.5991H0V97.5339H0.857678V75.5991Z" fill="#F4F4F4"/>
<path opacity="0.05" d="M0.857678 75.5991H0V97.5339H0.857678V75.5991Z" fill="#292A2E"/>
<path opacity="0.03" d="M4.79629 93.5381H5.67212L5.67212 79.5948H4.79629L4.79629 93.5381Z" fill="#292A2E"/>
<path d="M132.706 32.4175H77.5339V87.8781H132.706V32.4175Z" fill="#EAF3E8"/>
<path d="M77.5338 32.4175H76.9014V87.8781H77.5338V32.4175Z" fill="#F4F4F4"/>
<path opacity="0.05" d="M77.5338 32.4175H76.9014V87.8781H77.5338V32.4175Z" fill="#292A2E"/>
<path opacity="0.05" d="M90.8996 70.6344V56.124H102.724V64.5543H121.04V79.481H128.824V87.8782H121.04H119.54H80.1877V70.6344H90.8996Z" fill="#292A2E"/>
<path opacity="0.34" d="M101.206 57.6995H92.5955V59.2749H101.206V57.6995Z" fill="#FFFFFA"/>
<path opacity="0.34" d="M101.206 60.9643H92.5955V62.5397H101.206V60.9643Z" fill="#FFFFFA"/>
<path opacity="0.34" d="M101.206 64.2291H92.5955V65.8046H101.206V64.2291Z" fill="#FFFFFA"/>
<path opacity="0.34" d="M83.3017 72.1637H81.7146V73.7392H83.3017V72.1637Z" fill="#FFFFFA"/>
<path opacity="0.34" d="M83.3017 75.4285H81.7146V77.004H83.3017V75.4285Z" fill="#FFFFFA"/>
<path opacity="0.34" d="M83.3017 78.6932H81.7146V80.2686H83.3017V78.6932Z" fill="#FFFFFA"/>
<path opacity="0.34" d="M86.2377 72.1637H84.6506V73.7392H86.2377V72.1637Z" fill="#FFFFFA"/>
<path opacity="0.34" d="M86.2377 75.4285H84.6506V77.004H86.2377V75.4285Z" fill="#FFFFFA"/>
<path opacity="0.34" d="M86.2377 78.6932H84.6506V80.2686H86.2377V78.6932Z" fill="#FFFFFA"/>
<path opacity="0.34" d="M89.0944 72.1637H87.5073V73.7392H89.0944V72.1637Z" fill="#FFFFFA"/>
<path opacity="0.34" d="M89.0944 75.4285H87.5073V77.004H89.0944V75.4285Z" fill="#FFFFFA"/>
<path opacity="0.34" d="M89.0944 78.6932H87.5073V80.2686H89.0944V78.6932Z" fill="#FFFFFA"/>
<path d="M77.5339 59.8366H88.6354V32.4174H89.5536V59.8366H119.54V32.4174H120.458V59.8366H132.706V60.7595H120.458V87.8782H119.54V60.7595H89.5536V87.8782H88.6354V60.7595H77.5339V59.8366Z" fill="white"/>
<path d="M134.904 87.8112H75.3359V89.6555H134.904V87.8112Z" fill="#F4F4F4"/>
<path opacity="0.1" d="M134.904 87.8112H75.3359V89.6555H134.904V87.8112Z" fill="#292A2E"/>
<path opacity="0.1" d="M75.3359 87.8112H74.4758V89.6555H75.3359V87.8112Z" fill="#292A2E"/>
<path opacity="0.1" d="M75.3359 87.8112H74.4758V89.6555H75.3359V87.8112Z" fill="#292A2E"/>
<path d="M123.245 97.3123C114.799 97.3123 107.952 99.6287 107.952 102.486V108.646H138.54V102.486C138.54 99.6287 131.692 97.3123 123.245 97.3123Z" fill="#398051"/>
<path opacity="0.49" d="M123.245 97.3123C114.799 97.3123 107.952 99.6287 107.952 102.486V108.646H138.54V102.486C138.54 99.6287 131.692 97.3123 123.245 97.3123Z" fill="white"/>
<path opacity="0.49" d="M134.373 102.487V108.645H107.951V102.487C107.951 99.8677 113.702 97.7036 121.162 97.3616C128.623 97.7036 134.373 99.8677 134.373 102.487Z" fill="white"/>
<path d="M138.539 168.494H139.053L138.539 108.099L138.03 108.615L138.393 150.803L120.274 151.112L119.908 108.611L119.4 108.615L119.765 151.121L108.827 151.308L108.46 108.611L107.951 108.104L108.464 168.494L108.969 168.49L108.832 151.82L119.77 151.633L119.908 168.494L120.417 168.49L120.278 151.624L138.398 151.314L138.539 168.494Z" fill="#292A2E"/>
<path d="M102.032 145.197C102.032 145.197 103.297 149.854 99.4519 152.049C95.607 154.245 98.0182 156.993 98.0182 156.993L113.155 149.507L109.435 141.905L102.032 145.197Z" fill="#398051"/>
<path d="M100.431 148.275L89.0249 105.015C88.1598 100.236 89.4622 98.1646 91.4692 96.1523C94.9952 92.6168 109.606 85.092 109.606 85.092L127.135 85.0439C131.783 85.0439 136.351 89.6509 136.351 94.3229C136.351 98.9949 131.627 102.957 126.979 102.957L105.394 105.123L111.245 144.733L100.431 148.275Z" fill="#262626"/>
<path d="M111.245 144.732L108.941 129.138L97.2717 136.294L100.431 148.275L111.245 144.732Z" fill="#0C0C0C"/>
<path d="M113.89 93.8461C113.89 93.8461 106.521 95.4968 99.2235 102.833C94.7989 107.28 95.1618 115.329 95.8256 130.81L103.074 120.048L111.023 105.635L113.89 93.8461Z" fill="#0C0C0C"/>
<path d="M139.403 85.0392L127.499 84.9827L127.494 85.1403H123.89C123.89 85.1403 114.86 93.4918 107.591 98.7546C102.304 102.582 99.0783 106.232 98.7992 110.21C98.1188 119.906 90.4448 161.258 90.4448 161.258L101.994 163.016L112.129 113.597C112.129 113.597 127.977 106.252 131.642 103.697C135.094 101.29 137.532 100.36 138.674 97.7335C140.647 93.1975 139.403 85.0392 139.403 85.0392Z" fill="#262626"/>
<path d="M126.048 88.0531L106.737 88.3103L117.569 94.814L126.583 90.135C126.8 90.0178 126.972 89.8307 127.071 89.6037C127.17 89.3767 127.19 89.1229 127.128 88.883C127.067 88.643 126.927 88.4309 126.731 88.2804C126.535 88.13 126.294 88.0499 126.048 88.0531Z" fill="#292A2E"/>
<path opacity="0.2" d="M126.048 88.0531L106.737 88.3103L117.569 94.814L126.583 90.135C126.8 90.0178 126.972 89.8307 127.071 89.6037C127.17 89.3767 127.19 89.1229 127.128 88.883C127.067 88.643 126.927 88.4309 126.731 88.2804C126.535 88.13 126.294 88.0499 126.048 88.0531Z" fill="white"/>
<path d="M106.847 53.2274L101.385 71.0182L90.4441 85.4174L96.8351 92.7921L109.851 78.1888C110.451 77.7124 110.92 77.0904 111.214 76.3813L111.417 75.8879L118.935 57.6022L106.847 53.2274Z" fill="#398051"/>
<path d="M115.262 34.3429C115.262 34.3429 113.061 32.6718 112.515 28.8282C112.093 25.8521 114.824 27.7802 114.824 27.7802C114.824 27.7802 114.541 25.6342 116.096 25.8471C117.652 26.0601 118.522 28.3144 118.522 28.3144" fill="#0C0C0C"/>
<path d="M124.135 26.0984C124.135 26.0984 131.853 26.93 129.063 37.4424L128.38 37.4884L126.994 37.5819" fill="#0C0C0C"/>
<path d="M116.554 48.4209C116.588 48.4165 116.965 54.6961 124.222 54.1492C129.247 53.7709 131.038 48.412 131.153 48.412C130.611 48.2962 129.942 48.1206 129.676 48.0604C129.096 47.9251 128.571 47.6156 128.17 47.1729C127.77 46.7303 127.513 46.1755 127.433 45.5824C127.286 44.6922 127.535 40.1379 127.459 39.2372L119.747 40.9677C119.855 42.87 120.609 47.2799 117.966 48.0604C117.526 48.1893 117.052 48.3087 116.554 48.4209Z" fill="#E98862"/>
<path opacity="0.52" d="M119.639 46.2581C119.76 45.8667 119.838 45.4632 119.871 45.0548C119.956 44.1228 119.939 43.1843 119.82 42.256C121.388 42.0436 122.865 41.3935 124.083 40.3794C124.227 40.9111 125.014 43.2343 124.796 43.7387C124.384 44.6936 122.447 46.2581 119.639 46.2581Z" fill="#0C0C0C"/>
<path d="M121.231 45.0152C124.274 44.7408 127.915 42.8083 127.968 38.6562L128.015 34.9099C128.068 30.758 125.941 27.3644 122.052 27.3146C118.163 27.265 115.214 30.5936 115.161 34.7457L115.14 36.4041C115.143 36.9738 115.184 37.5425 115.264 38.1065C115.463 39.5985 115.773 41.867 116.78 43.4015C117.731 44.8503 119.287 45.1903 121.231 45.0152Z" fill="#E98862"/>
<path opacity="0.52" d="M119.819 41.2201C119.191 41.2487 118.565 41.1285 117.992 40.8693C117.968 40.8587 117.95 40.8392 117.941 40.8152C117.931 40.7911 117.932 40.7643 117.942 40.7406C117.952 40.7169 117.971 40.698 117.995 40.6881C118.018 40.6782 118.045 40.6781 118.069 40.6877C119.304 41.2172 120.425 41.1397 121.312 40.4636C121.33 40.4494 121.348 40.4361 121.368 40.4239C121.39 40.4133 121.415 40.4116 121.439 40.419C121.462 40.4264 121.482 40.4425 121.495 40.4639C121.507 40.4854 121.511 40.5107 121.505 40.5349C121.5 40.5591 121.486 40.5803 121.465 40.5944C121.458 40.5988 121.447 40.6079 121.431 40.6202C120.965 40.977 120.404 41.1859 119.819 41.2201Z" fill="#0C0C0C"/>
<path opacity="0.52" d="M119.848 42.1554C119.734 42.1624 119.62 42.1597 119.507 42.1472C119.495 42.1458 119.482 42.1419 119.471 42.1358C119.46 42.1296 119.45 42.1212 119.441 42.1111C119.433 42.1011 119.427 42.0895 119.424 42.0771C119.42 42.0646 119.419 42.0516 119.42 42.0387C119.422 42.0259 119.425 42.0134 119.432 42.002C119.438 41.9906 119.446 41.9806 119.456 41.9725C119.466 41.9643 119.478 41.9582 119.49 41.9546C119.502 41.9509 119.515 41.9497 119.528 41.9511C120.208 42.0236 120.532 41.7107 120.546 41.6972C120.564 41.6787 120.589 41.6682 120.615 41.6682C120.641 41.6682 120.666 41.6785 120.685 41.697C120.703 41.7155 120.713 41.7406 120.714 41.7667C120.714 41.7929 120.703 41.818 120.685 41.8365C120.451 42.0368 120.155 42.1495 119.848 42.1554Z" fill="#0C0C0C"/>
<path d="M116.445 37.2026C116.71 37.2026 116.924 36.987 116.924 36.721C116.924 36.455 116.71 36.2394 116.445 36.2394C116.181 36.2394 115.966 36.455 115.966 36.721C115.966 36.987 116.181 37.2026 116.445 37.2026Z" fill="#0C0C0C"/>
<path d="M121.126 36.9074C121.39 36.9074 121.605 36.6918 121.605 36.4258C121.605 36.1599 121.39 35.9443 121.126 35.9443C120.861 35.9443 120.646 36.1599 120.646 36.4258C120.646 36.6918 120.861 36.9074 121.126 36.9074Z" fill="#0C0C0C"/>
<path d="M127.71 39.919C128.892 39.9342 129.866 38.6754 129.882 37.4873C129.897 36.2993 128.947 35.6319 127.765 35.6169L127.146 36.405L126.695 39.906L127.71 39.919Z" fill="#E98862"/>
<path d="M126.534 38.0091C126.534 38.0091 126.136 32.1341 124.363 31.7712C123.183 31.5296 120.321 33.2126 117.669 32.7043C116.51 32.4826 115.408 32.7705 115.296 33.3213C115.252 33.5394 114.53 30.4053 116.346 28.0276C117.792 26.1348 122.524 25.5993 124.677 26.22C130.639 27.9392 128.008 35.8745 128.008 35.8745L127.742 37.9L126.534 38.0091Z" fill="#0C0C0C"/>
<g opacity="0.52">
<path d="M119.104 39.8337C119.102 39.8339 119.099 39.8339 119.097 39.8337C118.716 39.83 118.078 39.7807 118.08 39.4944C118.083 39.257 118.755 36.7021 118.831 36.4115C118.838 36.3865 118.854 36.3651 118.876 36.3521C118.899 36.3391 118.925 36.3356 118.95 36.3422C118.975 36.3488 118.996 36.3651 119.009 36.3875C119.022 36.4098 119.025 36.4365 119.019 36.4615C118.72 37.593 118.276 39.3351 118.274 39.4968C118.311 39.565 118.704 39.6352 119.099 39.6393C119.123 39.6398 119.147 39.65 119.165 39.6676C119.182 39.6852 119.193 39.7089 119.193 39.7339C119.194 39.7589 119.185 39.7832 119.169 39.8019C119.152 39.8205 119.129 39.832 119.104 39.834V39.8337Z" fill="#0C0C0C"/>
</g>
<path d="M117.805 34.1099C117.405 33.9992 116.982 33.9992 116.582 34.1099C116.385 34.1631 116.198 34.2456 116.026 34.3548C115.855 34.4617 115.699 34.5898 115.561 34.7361C115.535 34.7621 115.521 34.7971 115.52 34.8336C115.52 34.8702 115.533 34.9055 115.558 34.9323C115.583 34.9591 115.617 34.9753 115.653 34.9775C115.689 34.9797 115.725 34.9677 115.753 34.9441L115.762 34.9366C115.89 34.8174 116.032 34.7149 116.186 34.6315C116.336 34.5486 116.499 34.489 116.667 34.4549C116.998 34.385 117.342 34.4044 117.664 34.511L117.677 34.5158C117.73 34.5328 117.787 34.5286 117.837 34.5039C117.886 34.4792 117.924 34.4361 117.943 34.3837C117.961 34.3313 117.958 34.2737 117.935 34.2232C117.912 34.1727 117.87 34.1333 117.819 34.1133L117.805 34.1099Z" fill="#0C0C0C"/>
<path d="M120.639 34.3516C120.944 34.2029 121.282 34.1376 121.62 34.1625C121.791 34.1737 121.96 34.2109 122.12 34.273C122.283 34.3352 122.438 34.4177 122.581 34.5186L122.59 34.5247C122.62 34.5445 122.657 34.5517 122.693 34.5447C122.729 34.5378 122.761 34.5172 122.782 34.4873C122.803 34.4574 122.811 34.4205 122.806 34.3843C122.801 34.3481 122.782 34.3154 122.753 34.293C122.596 34.1665 122.425 34.0605 122.242 33.9773C122.056 33.8922 121.86 33.8355 121.658 33.8092C121.246 33.7528 120.828 33.8092 120.446 33.9724C120.42 33.9836 120.397 33.9997 120.377 34.0199C120.358 34.0401 120.343 34.064 120.332 34.0901C120.322 34.1162 120.317 34.1441 120.318 34.1722C120.318 34.2003 120.324 34.228 120.335 34.2537C120.358 34.3057 120.4 34.3466 120.452 34.3674C120.478 34.3777 120.506 34.3828 120.534 34.3823C120.562 34.3818 120.59 34.3758 120.615 34.3646L120.627 34.3589L120.639 34.3516Z" fill="#0C0C0C"/>
<path d="M120.445 28.0543C120.714 26.7601 120.223 25.5619 119.348 25.3781C118.474 25.1944 117.546 26.0947 117.277 27.389C117.008 28.6833 117.499 29.8815 118.374 30.0652C119.249 30.2489 120.176 29.3486 120.445 28.0543Z" fill="#0C0C0C"/>
<path d="M107.536 62.2233C107.765 64.923 109.385 81.7668 109.606 85.0924H139.39C139.561 82.0931 140.329 68.978 140.978 63.1121C141.598 57.5152 142.466 54.9683 141.752 53.2291C140.494 50.1614 136.488 48.7916 133.776 48.4224C132.12 48.197 129.629 48.0355 129.629 48.0355C129.629 48.0355 129.418 52.3247 124.389 52.5634C117.542 52.8874 117.999 48.0355 117.965 48.0355C116.856 48.0355 110.819 48.8464 109.309 49.8354C107.177 51.2323 106.547 53.1362 106.522 54.8852C106.493 56.8996 107.278 59.1609 107.536 62.2233Z" fill="#398051"/>
<path d="M109.047 78.4546C109.026 78.4547 109.005 78.4468 108.989 78.4323C108.974 78.4179 108.964 78.3981 108.962 78.3769L107.834 65.4035C107.832 65.381 107.839 65.3586 107.853 65.3413C107.867 65.324 107.888 65.3131 107.911 65.3111C107.922 65.31 107.933 65.3111 107.944 65.3144C107.954 65.3177 107.964 65.3231 107.973 65.3303C107.981 65.3376 107.989 65.3465 107.994 65.3565C107.999 65.3665 108.002 65.3775 108.003 65.3887L109.131 78.362C109.133 78.3845 109.126 78.4069 109.111 78.4242C109.097 78.4414 109.076 78.4523 109.054 78.4543C109.052 78.4545 109.049 78.4546 109.047 78.4546Z" fill="#0C0C0C"/>
<path d="M111.206 85.9904L115.296 82.6551L114.608 82.8507C114.384 82.9093 114.147 82.8806 113.944 82.7701C113.741 82.6597 113.587 82.476 113.514 82.2559C113.48 82.141 113.469 82.0204 113.483 81.9013C113.497 81.7823 113.535 81.6674 113.595 81.5635C113.654 81.4597 113.734 81.3692 113.83 81.2974C113.925 81.2257 114.034 81.1743 114.15 81.1463L122.742 79.0458L123.481 81.7967C123.711 82.651 123.681 83.5549 123.397 84.3923C123.112 85.2298 122.585 85.9627 121.883 86.4971L118.7 88.9121C118.537 89.0406 118.335 89.1086 118.128 89.1046C117.921 89.1007 117.721 89.0249 117.563 88.8903C117.423 88.7654 117.326 88.5988 117.287 88.4147C117.248 88.2306 117.268 88.0388 117.345 87.8671C117.331 87.863 117.319 87.8553 117.309 87.8446C117.301 87.8343 117.295 87.822 117.292 87.8088C117.289 87.7956 117.29 87.782 117.294 87.7691L116.707 88.2155C116.526 88.3594 116.297 88.4287 116.067 88.4095C115.837 88.3903 115.623 88.2839 115.468 88.112C115.334 87.9535 115.261 87.7528 115.26 87.5453C115.26 87.3377 115.332 87.1366 115.464 86.9773C115.455 86.9759 115.446 86.9729 115.438 86.9683L115.197 87.1518C115.034 87.2803 114.832 87.3483 114.625 87.3443C114.418 87.3404 114.219 87.2646 114.061 87.13C113.891 86.9786 113.786 86.7669 113.767 86.5393C113.749 86.3117 113.819 86.0859 113.963 85.9092C113.96 85.9042 113.957 85.8989 113.955 85.8933L112.252 87.2822C112.167 87.3511 112.07 87.4025 111.966 87.4337C111.862 87.4648 111.753 87.475 111.644 87.4637C111.536 87.4523 111.431 87.4197 111.336 87.3676C111.24 87.3156 111.156 87.2451 111.087 87.1602C111.019 87.0754 110.968 86.9777 110.937 86.873C110.906 86.7682 110.896 86.6584 110.907 86.5497C110.918 86.441 110.951 86.3356 111.002 86.2395C111.054 86.1434 111.124 86.0585 111.209 85.9897L111.206 85.9904Z" fill="#E98862"/>
<path opacity="0.2" d="M114.057 85.9429C114.066 85.9397 114.074 85.9349 114.081 85.9288L115.72 84.5603C115.728 84.5534 115.735 84.5448 115.74 84.5352C115.745 84.5256 115.748 84.515 115.749 84.5042C115.75 84.4933 115.749 84.4824 115.746 84.472C115.743 84.4616 115.738 84.452 115.731 84.4436C115.724 84.4352 115.715 84.4283 115.706 84.4233C115.696 84.4182 115.686 84.4151 115.675 84.4141C115.664 84.4131 115.653 84.4143 115.643 84.4175C115.632 84.4207 115.623 84.426 115.615 84.4329L113.976 85.8012C113.961 85.8137 113.951 85.831 113.948 85.8502C113.944 85.8694 113.948 85.8891 113.957 85.906C113.967 85.923 113.982 85.9359 114 85.9427C114.018 85.9494 114.038 85.9495 114.057 85.9429Z" fill="#0A0A0A"/>
<path opacity="0.2" d="M115.501 86.9765C115.51 86.9733 115.518 86.9686 115.525 86.9626L116.821 85.8972C116.838 85.8833 116.849 85.8632 116.851 85.8413C116.853 85.8195 116.847 85.7976 116.833 85.7806C116.819 85.7636 116.799 85.7527 116.777 85.7505C116.756 85.7483 116.734 85.7549 116.717 85.7688L115.421 86.8342C115.406 86.8466 115.395 86.8639 115.392 86.8832C115.388 86.9024 115.391 86.9223 115.401 86.9393C115.411 86.9564 115.426 86.9694 115.444 86.9762C115.462 86.983 115.483 86.9831 115.501 86.9765Z" fill="#0A0A0A"/>
<path opacity="0.2" d="M117.398 87.8699C117.408 87.8664 117.416 87.8612 117.424 87.8547L118.024 87.3371C118.033 87.3301 118.039 87.3214 118.044 87.3117C118.049 87.302 118.052 87.2915 118.053 87.2806C118.054 87.2698 118.052 87.2589 118.049 87.2486C118.046 87.2382 118.04 87.2287 118.033 87.2204C118.026 87.2122 118.018 87.2054 118.008 87.2005C117.998 87.1956 117.988 87.1926 117.977 87.1918C117.966 87.1909 117.955 87.1923 117.945 87.1956C117.935 87.199 117.925 87.2044 117.917 87.2115L117.317 87.729C117.302 87.7416 117.292 87.759 117.289 87.778C117.286 87.7971 117.29 87.8167 117.299 87.8334C117.309 87.8501 117.324 87.8629 117.342 87.8696C117.36 87.8762 117.38 87.8763 117.398 87.8699Z" fill="#0A0A0A"/>
<path d="M147.351 77.8211L147.32 77.6811L141.883 53.511L131.128 55.9549L135.371 74.8213L118.374 79.0197L120.466 88.6607L143.117 84.3179C143.168 84.3078 143.243 84.2925 143.295 84.2807C143.983 84.1243 144.634 83.8331 145.21 83.4239C145.787 83.0146 146.277 82.4952 146.654 81.8954C147.03 81.2956 147.286 80.627 147.405 79.928C147.525 79.2289 147.507 78.513 147.351 77.8211Z" fill="#398051"/>
<path d="M118.291 79.038C118.287 79.0164 118.291 78.9938 118.303 78.9751C118.314 78.9564 118.333 78.943 118.354 78.9377L135.276 74.7599L132.524 62.5444C132.521 62.5333 132.52 62.5216 132.522 62.5102C132.523 62.4987 132.527 62.4877 132.533 62.4778C132.539 62.4679 132.547 62.4592 132.556 62.4524C132.565 62.4456 132.576 62.4408 132.587 62.4383C132.598 62.4357 132.61 62.4355 132.621 62.4376C132.633 62.4397 132.643 62.444 132.653 62.4504C132.663 62.4568 132.671 62.4651 132.677 62.4748C132.683 62.4845 132.688 62.4953 132.69 62.5067L135.459 74.8039C135.464 74.8258 135.461 74.8488 135.449 74.868C135.437 74.8872 135.419 74.9009 135.397 74.9062L118.474 79.084C118.474 79.084 118.588 79.5813 118.62 79.7491C118.622 79.7709 118.616 79.7929 118.602 79.8101C118.589 79.8273 118.569 79.8384 118.547 79.841C118.525 79.8435 118.504 79.8373 118.486 79.8236C118.469 79.81 118.458 79.79 118.456 79.7682C118.417 79.5842 118.291 79.038 118.291 79.038Z" fill="#0C0C0C"/>
<path d="M118.955 92.5007L112.419 72.3069C112.305 71.9521 112.081 71.6428 111.781 71.4235C111.48 71.2042 111.118 71.0861 110.747 71.0862H84.1224C83.8448 71.0862 83.5712 71.1522 83.324 71.2789C83.0767 71.4055 82.8627 71.5893 82.6996 71.815C82.5365 72.0407 82.4289 72.3021 82.3856 72.5777C82.3422 72.8532 82.3644 73.1352 82.4503 73.4005L88.9857 93.5943C89.1005 93.9491 89.3241 94.2583 89.6245 94.4776C89.9249 94.6969 90.2866 94.815 90.6578 94.815H117.282C117.56 94.815 117.834 94.749 118.081 94.6223C118.328 94.4956 118.542 94.3119 118.705 94.0861C118.868 93.8604 118.976 93.5991 119.019 93.3235C119.063 93.048 119.04 92.766 118.955 92.5007Z" fill="#292A2E"/>
<path opacity="0.2" d="M118.955 92.5007L112.419 72.3069C112.305 71.9521 112.081 71.6428 111.781 71.4235C111.48 71.2042 111.118 71.0861 110.747 71.0862H84.1224C83.8448 71.0862 83.5712 71.1522 83.324 71.2789C83.0767 71.4055 82.8627 71.5893 82.6996 71.815C82.5365 72.0407 82.4289 72.3021 82.3856 72.5777C82.3422 72.8532 82.3644 73.1352 82.4503 73.4005L88.9857 93.5943C89.1005 93.9491 89.3241 94.2583 89.6245 94.4776C89.9249 94.6969 90.2866 94.815 90.6578 94.815H117.282C117.56 94.815 117.834 94.749 118.081 94.6223C118.328 94.4956 118.542 94.3119 118.705 94.0861C118.868 93.8604 118.976 93.5991 119.019 93.3235C119.063 93.048 119.04 92.766 118.955 92.5007Z" fill="white"/>
<path d="M99.9354 85.7575C101.478 85.7575 102.728 84.5008 102.728 82.9506C102.728 81.4003 101.478 80.1436 99.9354 80.1436C98.3933 80.1436 97.1431 81.4003 97.1431 82.9506C97.1431 84.5008 98.3933 85.7575 99.9354 85.7575Z" fill="white"/>
<path d="M73.6485 26.8765H20.8048C18.3567 26.8765 16.3721 28.8714 16.3721 31.3324V95.8187C16.3721 98.2797 18.3567 100.275 20.8048 100.275H73.6485C76.0967 100.275 78.0813 98.2797 78.0813 95.8187V31.3324C78.0813 28.8714 76.0967 26.8765 73.6485 26.8765Z" fill="#292A2E"/>
<path d="M75.6017 24.9131H22.7579C20.3098 24.9131 18.3252 26.9081 18.3252 29.369V93.8554C18.3252 96.3163 20.3098 98.3113 22.7579 98.3113H75.6017C78.0498 98.3113 80.0344 96.3163 80.0344 93.8554V29.369C80.0344 26.9081 78.0498 24.9131 75.6017 24.9131Z" fill="#E6FFE6"/>
<path d="M75.6016 98.4818H22.7579C21.5377 98.4804 20.3678 97.9926 19.505 97.1252C18.6421 96.2578 18.1568 95.0818 18.1555 93.8552V29.369C18.1569 28.1424 18.6422 26.9664 19.505 26.0991C20.3678 25.2318 21.5377 24.7439 22.7579 24.7426H75.6016C76.8218 24.744 77.9916 25.2318 78.8544 26.0992C79.7172 26.9665 80.2025 28.1424 80.2038 29.369V93.8552C80.2025 95.0818 79.7173 96.2578 78.8545 97.1251C77.9917 97.9925 76.8218 98.4804 75.6016 98.4818ZM22.7579 25.0836C21.6276 25.0849 20.544 25.5368 19.7448 26.3402C18.9456 27.1435 18.496 28.2328 18.4948 29.369V93.8552C18.496 94.9914 18.9456 96.0806 19.7448 96.884C20.544 97.6874 21.6276 98.1393 22.7579 98.1406H75.6016C76.7319 98.1393 77.8155 97.6874 78.6146 96.884C79.4138 96.0806 79.8633 94.9913 79.8646 93.8552V29.369C79.8633 28.2328 79.4138 27.1436 78.6146 26.3402C77.8155 25.5368 76.7319 25.0849 75.6016 25.0836H22.7579Z" fill="#292A2E"/>
<path d="M17.6134 107.539C23.6915 107.539 28.6188 102.586 28.6188 96.4756C28.6188 90.3657 23.6915 85.4127 17.6134 85.4127C11.5352 85.4127 6.60791 90.3657 6.60791 96.4756C6.60791 102.586 11.5352 107.539 17.6134 107.539Z" fill="#292A2E"/>
<path d="M15.3289 95.0318C15.184 95.0318 15.045 94.974 14.9426 94.871C14.8401 94.768 14.7825 94.6284 14.7825 94.4827V91.8241C14.7825 90.3541 16.0525 89.1578 17.6135 89.1578C19.1745 89.1578 20.4446 90.3541 20.4446 91.8241V94.3003C20.4458 94.3732 20.4327 94.4457 20.4058 94.5134C20.3789 94.5812 20.3389 94.6429 20.288 94.6949C20.2372 94.7469 20.1765 94.7883 20.1096 94.8165C20.0427 94.8447 19.9708 94.8592 19.8983 94.8592C19.8257 94.8592 19.7539 94.8447 19.6869 94.8165C19.62 94.7883 19.5594 94.7469 19.5085 94.6949C19.4577 94.6429 19.4176 94.5812 19.3907 94.5134C19.3639 94.4457 19.3507 94.3732 19.3519 94.3003V91.8241C19.3519 90.9596 18.5716 90.2562 17.6135 90.2562C16.6554 90.2562 15.8751 90.9596 15.8751 91.8241V94.4831C15.875 94.6286 15.8174 94.7682 15.715 94.8711C15.6126 94.974 15.4737 95.0318 15.3289 95.0318Z" fill="white"/>
<path d="M21.0988 94.0232H14.1281C13.7216 94.0232 13.3921 94.3545 13.3921 94.7631V101.363C13.3921 101.772 13.7216 102.103 14.1281 102.103H21.0988C21.5053 102.103 21.8349 101.772 21.8349 101.363V94.7631C21.8349 94.3545 21.5053 94.0232 21.0988 94.0232Z" fill="white"/>
<path d="M16.9195 97.4098C16.9195 97.5407 16.956 97.6689 17.025 97.78C17.094 97.891 17.1927 97.9803 17.3097 98.0376V99.1095C17.3097 99.1903 17.3416 99.2678 17.3984 99.3249C17.4553 99.382 17.5323 99.4141 17.6127 99.4141C17.693 99.4141 17.7701 99.382 17.8269 99.3249C17.8837 99.2678 17.9156 99.1903 17.9156 99.1095V98.0376C18.0271 97.9832 18.1221 97.8998 18.1907 97.7961C18.2593 97.6923 18.299 97.572 18.3057 97.4476C18.3123 97.3232 18.2858 97.1993 18.2287 97.0887C18.1716 96.9782 18.0861 96.885 17.9811 96.8188C17.8761 96.7527 17.7554 96.716 17.6315 96.7127C17.5076 96.7093 17.3851 96.7393 17.2767 96.7996C17.1683 96.8599 17.0779 96.9483 17.0149 97.0556C16.952 97.1629 16.9187 97.2852 16.9187 97.4098H16.9195Z" fill="#292A2E"/>
<path d="M70.987 61.5366H27.3725C26.3313 61.5366 25.4873 62.385 25.4873 63.4316V69.5779C25.4873 70.6245 26.3313 71.4729 27.3725 71.4729H70.987C72.0281 71.4729 72.8721 70.6245 72.8721 69.5779V63.4316C72.8721 62.385 72.0281 61.5366 70.987 61.5366Z" fill="white"/>
<path d="M70.9868 71.6433H27.3724C26.8277 71.6426 26.3054 71.4248 25.9202 71.0376C25.5349 70.6504 25.3183 70.1254 25.3176 69.5777V63.4316C25.3183 62.884 25.5349 62.3589 25.9201 61.9717C26.3054 61.5844 26.8276 61.3666 27.3724 61.3659H70.9868C71.5316 61.3665 72.0539 61.5844 72.4392 61.9716C72.8244 62.3589 73.0411 62.8839 73.0417 63.4316V69.5777C73.0411 70.1254 72.8244 70.6504 72.4392 71.0377C72.0539 71.4249 71.5316 71.6427 70.9868 71.6433ZM27.3724 61.707C26.9176 61.7074 26.4815 61.8893 26.1599 62.2126C25.8382 62.536 25.6573 62.9744 25.6569 63.4316V69.5777C25.6574 70.035 25.8383 70.4733 26.1599 70.7966C26.4815 71.1199 26.9176 71.3017 27.3724 71.3022H70.9868C71.4416 71.3017 71.8777 71.1199 72.1993 70.7966C72.521 70.4733 72.7019 70.035 72.7025 69.5777V63.4316C72.702 62.9744 72.5211 62.536 72.1994 62.2126C71.8778 61.8893 71.4417 61.7074 70.9868 61.707H27.3724Z" fill="#292A2E"/>
<path d="M70.987 75.7367H27.3725C26.3313 75.7367 25.4873 76.5851 25.4873 77.6317V83.778C25.4873 84.8246 26.3313 85.673 27.3725 85.673H70.987C72.0281 85.673 72.8721 84.8246 72.8721 83.778V77.6317C72.8721 76.5851 72.0281 75.7367 70.987 75.7367Z" fill="white"/>
<path d="M70.9868 85.8434H27.3724C26.8276 85.8427 26.3052 85.6248 25.92 85.2375C25.5348 84.8502 25.3181 84.325 25.3176 83.7773V77.6317C25.3183 77.0841 25.5349 76.5591 25.9202 76.1718C26.3054 75.7846 26.8277 75.5668 27.3724 75.5662H70.9868C71.5316 75.5667 72.0539 75.7845 72.4392 76.1718C72.8244 76.559 73.0411 77.084 73.0417 77.6317V83.7773C73.0412 84.3251 72.8246 84.8502 72.4393 85.2376C72.0541 85.6249 71.5317 85.8428 70.9868 85.8434ZM27.3724 75.9072C26.9176 75.9077 26.4815 76.0895 26.1599 76.4128C25.8383 76.7361 25.6574 77.1745 25.6569 77.6317V83.7773C25.6574 84.2345 25.8383 84.6729 26.1599 84.9962C26.4815 85.3195 26.9176 85.5013 27.3724 85.5018H70.9868C71.4416 85.5014 71.8777 85.3195 72.1994 84.9962C72.5211 84.6729 72.702 84.2346 72.7025 83.7773V77.6317C72.702 77.1745 72.5211 76.7361 72.1994 76.4128C71.8777 76.0895 71.4416 75.9077 70.9868 75.9072H27.3724Z" fill="#292A2E"/>
<path d="M49.1797 54.1457C54.7723 54.1457 59.3059 49.5883 59.3059 43.9665C59.3059 38.3447 54.7723 33.7874 49.1797 33.7874C43.5871 33.7874 39.0535 38.3447 39.0535 43.9665C39.0535 49.5883 43.5871 54.1457 49.1797 54.1457Z" fill="white"/>
<path d="M49.1797 54.3162C47.1433 54.3162 45.1527 53.7092 43.4596 52.5719C41.7664 51.4347 40.4468 49.8183 39.6675 47.9271C38.8882 46.036 38.6844 43.955 39.0816 41.9474C39.4789 39.9397 40.4595 38.0956 41.8994 36.6482C43.3393 35.2007 45.1738 34.215 47.171 33.8157C49.1682 33.4163 51.2384 33.6213 53.1197 34.4046C55.001 35.188 56.609 36.5145 57.7404 38.2165C58.8717 39.9185 59.4755 41.9195 59.4755 43.9665C59.4725 46.7105 58.3868 49.3412 56.4566 51.2814C54.5264 53.2217 51.9094 54.3131 49.1797 54.3162ZM49.1797 33.9579C47.2104 33.9579 45.2854 34.5449 43.6481 35.6446C42.0107 36.7444 40.7346 38.3075 39.981 40.1364C39.2274 41.9652 39.0302 43.9776 39.4144 45.9191C39.7986 47.8606 40.7468 49.6439 42.1393 51.0437C43.5317 52.4434 45.3058 53.3966 47.2372 53.7828C49.1686 54.169 51.1706 53.9708 52.9899 53.2133C54.8092 52.4557 56.3642 51.1729 57.4583 49.527C58.5523 47.8811 59.1363 45.946 59.1363 43.9665C59.1333 41.313 58.0833 38.769 56.2168 36.8926C54.3502 35.0163 51.8194 33.9608 49.1797 33.9579Z" fill="#292A2E"/>
<path opacity="0.5" d="M59.081 43.9665C59.0839 46.3226 58.2522 48.6027 56.7349 50.3984C55.8004 49.3033 54.6413 48.4243 53.337 47.8217C52.0328 47.2191 50.6144 46.9073 49.179 46.9076C47.7437 46.9078 46.3253 47.2202 45.0213 47.8232C43.7174 48.4262 42.5585 49.3057 41.6244 50.4012C40.5941 49.1788 39.8726 47.7245 39.5211 46.1618C39.1696 44.5991 39.1986 42.9742 39.6056 41.4252C40.0126 39.8761 40.7855 38.4488 41.8588 37.2643C42.932 36.0798 44.2738 35.1733 45.7702 34.6217C47.2666 34.0701 48.8733 33.8898 50.4538 34.0961C52.0344 34.3023 53.542 34.889 54.8487 35.8064C56.1554 36.7237 57.2225 37.9446 57.9593 39.3653C58.6961 40.7859 59.0809 42.3644 59.081 43.9665Z" fill="#63C640"/>
<path d="M56.735 50.3984C55.8056 51.5016 54.6484 52.388 53.3438 52.9961C52.0392 53.6042 50.6184 53.9193 49.1804 53.9196C47.7423 53.9198 46.3215 53.6052 45.0166 52.9976C43.7118 52.39 42.5542 51.504 41.6245 50.4011C42.5586 49.3056 43.7174 48.4262 45.0214 47.8232C46.3254 47.2201 47.7438 46.9078 49.1791 46.9075C50.6145 46.9073 52.0329 47.2191 53.3371 47.8217C54.6413 48.4242 55.8005 49.3032 56.735 50.3984Z" fill="white"/>
<path d="M49.1799 45.0505C51.3903 45.0505 53.1822 43.2493 53.1822 41.0274C53.1822 38.8055 51.3903 37.0043 49.1799 37.0043C46.9696 37.0043 45.1777 38.8055 45.1777 41.0274C45.1777 43.2493 46.9696 45.0505 49.1799 45.0505Z" fill="white"/>
<g opacity="0.4">
<path d="M29.1586 81.9149C29.8234 81.9149 30.3623 81.3731 30.3623 80.7048C30.3623 80.0366 29.8234 79.4948 29.1586 79.4948C28.4938 79.4948 27.9548 80.0366 27.9548 80.7048C27.9548 81.3731 28.4938 81.9149 29.1586 81.9149Z" fill="#292A2E"/>
<path d="M32.9239 81.9149C33.5888 81.9149 34.1277 81.3731 34.1277 80.7048C34.1277 80.0366 33.5888 79.4948 32.9239 79.4948C32.2591 79.4948 31.7202 80.0366 31.7202 80.7048C31.7202 81.3731 32.2591 81.9149 32.9239 81.9149Z" fill="#292A2E"/>
<path d="M36.6893 81.9149C37.3541 81.9149 37.8931 81.3731 37.8931 80.7048C37.8931 80.0366 37.3541 79.4948 36.6893 79.4948C36.0245 79.4948 35.4856 80.0366 35.4856 80.7048C35.4856 81.3731 36.0245 81.9149 36.6893 81.9149Z" fill="#292A2E"/>
<path d="M40.4547 81.9149C41.1195 81.9149 41.6584 81.3731 41.6584 80.7048C41.6584 80.0366 41.1195 79.4948 40.4547 79.4948C39.7899 79.4948 39.251 80.0366 39.251 80.7048C39.251 81.3731 39.7899 81.9149 40.4547 81.9149Z" fill="#292A2E"/>
<path d="M44.2201 81.9149C44.8849 81.9149 45.4238 81.3731 45.4238 80.7048C45.4238 80.0366 44.8849 79.4948 44.2201 79.4948C43.5553 79.4948 43.0164 80.0366 43.0164 80.7048C43.0164 81.3731 43.5553 81.9149 44.2201 81.9149Z" fill="#292A2E"/>
<path d="M47.9855 81.9149C48.6503 81.9149 49.1892 81.3731 49.1892 80.7048C49.1892 80.0366 48.6503 79.4948 47.9855 79.4948C47.3207 79.4948 46.7817 80.0366 46.7817 80.7048C46.7817 81.3731 47.3207 81.9149 47.9855 81.9149Z" fill="#292A2E"/>
<path d="M51.7509 81.9149C52.4157 81.9149 52.9546 81.3731 52.9546 80.7048C52.9546 80.0366 52.4157 79.4948 51.7509 79.4948C51.0861 79.4948 50.5471 80.0366 50.5471 80.7048C50.5471 81.3731 51.0861 81.9149 51.7509 81.9149Z" fill="#292A2E"/>
</g>
<g opacity="0.3">
<path d="M30.3525 66.4318V66.841H28.8066V66.4318H30.3525Z" fill="black"/>
<path d="M32.2737 66.4318V66.841H30.7278V66.4318H32.2737Z" fill="black"/>
<path d="M34.1946 66.4318V66.841H32.6487V66.4318H34.1946Z" fill="black"/>
<path d="M36.1155 66.4318V66.841H34.5696V66.4318H36.1155Z" fill="black"/>
<path d="M38.0368 66.4318V66.841H36.4907V66.4318H38.0368Z" fill="black"/>
<path d="M41.5037 68.7408C41.1599 68.9184 40.7768 69.0052 40.3904 68.993C39.364 68.993 38.4939 68.238 38.4939 67.03C38.4939 65.734 39.3891 64.614 40.7784 64.614C41.8674 64.614 42.5998 65.3814 42.5998 66.4323C42.5998 67.3761 42.0739 67.9296 41.4856 67.9296C41.2354 67.9296 41.0038 67.7591 41.0225 67.3761H40.9974C40.9164 67.542 40.7909 67.6818 40.635 67.7796C40.4791 67.8774 40.2991 67.9294 40.1153 67.9296C39.7523 67.9296 39.4393 67.634 39.4393 67.1371C39.4386 66.941 39.4765 66.7468 39.5508 66.5656C39.6251 66.3843 39.7343 66.2197 39.8722 66.0811C40.0101 65.9424 40.1739 65.8326 40.3542 65.7579C40.5345 65.6832 40.7277 65.6451 40.9227 65.6458C41.1527 65.6425 41.3808 65.6875 41.5925 65.778L41.3796 66.9167C41.2858 67.3942 41.3609 67.6159 41.5674 67.6215C41.8866 67.6277 42.2434 67.1998 42.2434 66.4701C42.2434 65.5579 41.6988 64.9036 40.7287 64.9036C39.7085 64.9036 38.851 65.7151 38.851 66.9923C38.851 68.043 39.5333 68.691 40.4596 68.691C40.7881 68.6987 41.1131 68.623 41.4047 68.4709L41.5037 68.7408ZM41.1596 66.0229C41.0579 65.9929 40.9525 65.978 40.8466 65.9789C40.2958 65.9789 39.8515 66.501 39.8515 67.1113C39.8515 67.3881 39.9892 67.5888 40.2646 67.5888C40.6276 67.5888 40.9592 67.1232 41.0279 66.7331L41.1596 66.0229Z" fill="black"/>
<path d="M44.5698 66.4318V66.841H43.0239V66.4318H44.5698Z" fill="black"/>
<path d="M46.4909 66.4318V66.841H44.9448V66.4318H46.4909Z" fill="black"/>
<path d="M48.4119 66.4318V66.841H46.866V66.4318H48.4119Z" fill="black"/>
</g>
</g>
<defs>
<clipPath id="clip0_201_1086">
<rect width="151" height="147" fill="white"/>
</clipPath>
</defs>
</svg>
