<svg id="Layer_1" data-name="Layer 1" xmlns="http://www.w3.org/2000/svg" viewBox="0 0 3027.01 550.53"><defs><style>.cls-1,.cls-3,.cls-4{fill:none;}.cls-1,.cls-2,.cls-3{stroke:#000;}.cls-1,.cls-2,.cls-3,.cls-4{stroke-miterlimit:10;}.cls-1,.cls-2{stroke-width:2px;}.cls-4{stroke:#231f20;}</style></defs><title>PROMENADE_MAP</title><g id="BLK2"><g id="LOT2"><rect class="cls-1" x="720.01" y="1" width="50" height="85"/><polygon class="cls-1" points="754.01 21.5 754.01 65.5 728.01 65.5 728.01 53.5 720.01 53.5 720.01 21.5 754.01 21.5"/></g><g id="LOT3"><rect class="cls-1" x="770.01" y="1" width="50" height="85"/><polygon class="cls-1" points="804.01 21.5 804.01 65.5 778.01 65.5 778.01 53.5 770.01 53.5 770.01 21.5 804.01 21.5"/></g><g id="LOT5"><rect class="cls-1" x="820.01" y="1" width="50" height="85"/><polygon class="cls-1" points="854.01 21.5 854.01 65.5 828.01 65.5 828.01 53.5 820.01 53.5 820.01 21.5 854.01 21.5"/></g><g id="LOT6"><rect class="cls-1" x="870.01" y="1" width="50" height="85"/><polygon class="cls-1" points="904.01 21.5 904.01 65.5 878.01 65.5 878.01 53.5 870.01 53.5 870.01 21.5 904.01 21.5"/></g><g id="LOT7"><rect class="cls-1" x="920.01" y="1" width="50" height="85"/><polygon class="cls-1" points="954.01 21.5 954.01 65.5 928.01 65.5 928.01 53.5 920.01 53.5 920.01 21.5 954.01 21.5"/></g><g id="LOT8"><rect class="cls-1" x="970.01" y="1" width="50" height="85"/><polygon class="cls-1" points="1004.01 21.5 1004.01 65.5 978.01 65.5 978.01 53.5 970.01 53.5 970.01 21.5 1004.01 21.5"/></g><g id="LOT9"><rect class="cls-1" x="1020.01" y="1" width="50" height="85"/><polygon class="cls-1" points="1054.01 21.5 1054.01 65.5 1028.01 65.5 1028.01 53.5 1020.01 53.5 1020.01 21.5 1054.01 21.5"/></g><g id="LOT10"><rect class="cls-1" x="1070.01" y="1" width="50" height="85"/><polygon class="cls-1" points="1104.01 21.5 1104.01 65.5 1078.01 65.5 1078.01 53.5 1070.01 53.5 1070.01 21.5 1104.01 21.5"/></g><g id="LOT11"><rect class="cls-1" x="1120.01" y="1" width="50" height="85"/><polygon class="cls-1" points="1154.01 21.5 1154.01 65.5 1128.01 65.5 1128.01 53.5 1120.01 53.5 1120.01 21.5 1154.01 21.5"/></g><g id="LOT12"><rect class="cls-1" x="1170.01" y="1" width="50" height="85"/><polygon class="cls-1" points="1204.01 21.5 1204.01 65.5 1178.01 65.5 1178.01 53.5 1170.01 53.5 1170.01 21.5 1204.01 21.5"/></g><g id="LOT13"><rect class="cls-1" x="1220.01" y="1" width="50" height="85"/><polygon class="cls-1" points="1254.01 21.5 1254.01 65.5 1228.01 65.5 1228.01 53.5 1220.01 53.5 1220.01 21.5 1254.01 21.5"/></g><g id="LOT14"><rect class="cls-1" x="1270.01" y="1" width="50" height="85"/><polygon class="cls-1" points="1304.01 21.5 1304.01 65.5 1278.01 65.5 1278.01 53.5 1270.01 53.5 1270.01 21.5 1304.01 21.5"/></g><g id="LOT15"><rect class="cls-1" x="1320.01" y="1" width="50" height="85"/><polygon class="cls-1" points="1354.01 21.5 1354.01 65.5 1328.01 65.5 1328.01 53.5 1320.01 53.5 1320.01 21.5 1354.01 21.5"/></g><g id="LOT16"><rect class="cls-1" x="1370.01" y="1" width="50" height="85"/><polygon class="cls-1" points="1404.01 21.5 1404.01 65.5 1378.01 65.5 1378.01 53.5 1370.01 53.5 1370.01 21.5 1404.01 21.5"/></g><g id="LOT17"><rect class="cls-1" x="1420.01" y="1" width="50" height="85"/><polygon class="cls-1" points="1454.01 21.5 1454.01 65.5 1428.01 65.5 1428.01 53.5 1420.01 53.5 1420.01 21.5 1454.01 21.5"/></g><g id="LOT18"><rect class="cls-1" x="1470.01" y="1" width="50" height="85"/><polygon class="cls-1" points="1504.01 21.5 1504.01 65.5 1478.01 65.5 1478.01 53.5 1470.01 53.5 1470.01 21.5 1504.01 21.5"/></g><g id="LOT19"><rect class="cls-1" x="1520.01" y="1" width="50" height="85"/><polygon class="cls-1" points="1554.01 21.5 1554.01 65.5 1528.01 65.5 1528.01 53.5 1520.01 53.5 1520.01 21.5 1554.01 21.5"/></g><g id="LOT20"><rect class="cls-1" x="1570.01" y="1" width="50" height="85"/><polygon class="cls-1" points="1604.01 21.5 1604.01 65.5 1578.01 65.5 1578.01 53.5 1570.01 53.5 1570.01 21.5 1604.01 21.5"/></g><g id="LOT21"><rect class="cls-1" x="1620.01" y="1" width="50" height="85"/><polygon class="cls-1" points="1654.01 21.5 1654.01 65.5 1628.01 65.5 1628.01 53.5 1620.01 53.5 1620.01 21.5 1654.01 21.5"/></g><g id="LOT22"><rect class="cls-1" x="1670.01" y="1" width="50" height="85"/><polygon class="cls-1" points="1704.01 21.5 1704.01 65.5 1678.01 65.5 1678.01 53.5 1670.01 53.5 1670.01 21.5 1704.01 21.5"/></g><g id="LOT23"><rect class="cls-1" x="1720.01" y="1" width="50" height="85"/><polygon class="cls-1" points="1754.01 21.5 1754.01 65.5 1728.01 65.5 1728.01 53.5 1720.01 53.5 1720.01 21.5 1754.01 21.5"/></g><g id="LOT24"><rect class="cls-1" x="1770.01" y="1" width="50" height="85"/><polygon class="cls-1" points="1804.01 21.5 1804.01 65.5 1778.01 65.5 1778.01 53.5 1770.01 53.5 1770.01 21.5 1804.01 21.5"/></g><g id="LOT25"><rect class="cls-1" x="1820.01" y="1" width="64" height="85"/><polygon class="cls-1" points="1865.01 21.5 1839.01 21.5 1831.01 21.5 1831.01 53.5 1839.01 53.5 1839.01 65.5 1865.01 65.5 1865.01 53.5 1873.01 53.5 1873.01 21.5 1865.01 21.5"/></g><g id="LOT26"><rect class="cls-1" x="1884.01" y="1" width="64" height="85"/><polygon class="cls-1" points="1929.01 21.5 1903.01 21.5 1895.01 21.5 1895.01 53.5 1903.01 53.5 1903.01 65.5 1929.01 65.5 1929.01 53.5 1937.01 53.5 1937.01 21.5 1929.01 21.5"/></g><g id="LOT27"><rect class="cls-1" x="1948.01" y="1" width="50" height="85"/><polygon class="cls-1" points="1964.01 21.5 1964.01 65.5 1990.01 65.5 1990.01 53.5 1998.01 53.5 1998.01 21.5 1964.01 21.5"/></g><g id="LOT28"><rect class="cls-1" x="1998.01" y="1" width="50" height="85"/><polygon class="cls-1" points="2014.01 21.5 2014.01 65.5 2040.01 65.5 2040.01 53.5 2048.01 53.5 2048.01 21.5 2014.01 21.5"/></g><g id="LOT29"><rect class="cls-1" x="2048.01" y="1" width="50" height="85"/><polygon class="cls-1" points="2064.01 21.5 2064.01 65.5 2090.01 65.5 2090.01 53.5 2098.01 53.5 2098.01 21.5 2064.01 21.5"/></g><g id="LOT30"><rect class="cls-1" x="2098.01" y="1" width="50" height="85"/><polygon class="cls-1" points="2114.01 21.5 2114.01 65.5 2140.01 65.5 2140.01 53.5 2148.01 53.5 2148.01 21.5 2114.01 21.5"/></g><g id="LOT31"><rect class="cls-1" x="2148.01" y="1" width="50" height="85"/><polygon class="cls-1" points="2164.01 21.5 2164.01 65.5 2190.01 65.5 2190.01 53.5 2198.01 53.5 2198.01 21.5 2164.01 21.5"/></g><g id="LOT32"><rect class="cls-1" x="2198.01" y="1" width="50" height="85"/><polygon class="cls-1" points="2214.01 21.5 2214.01 65.5 2240.01 65.5 2240.01 53.5 2248.01 53.5 2248.01 21.5 2214.01 21.5"/></g><g id="LOT33"><rect class="cls-1" x="2248.01" y="1" width="50" height="85"/><polygon class="cls-1" points="2264.01 21.5 2264.01 65.5 2290.01 65.5 2290.01 53.5 2298.01 53.5 2298.01 21.5 2264.01 21.5"/></g><g id="LOT34"><rect class="cls-1" x="2298.01" y="1" width="50" height="85"/><polygon class="cls-1" points="2314.01 21.5 2314.01 65.5 2340.01 65.5 2340.01 53.5 2348.01 53.5 2348.01 21.5 2314.01 21.5"/></g><g id="LOT35"><rect class="cls-1" x="2348.01" y="1" width="50" height="85"/><polygon class="cls-1" points="2364.01 21.5 2364.01 65.5 2390.01 65.5 2390.01 53.5 2398.01 53.5 2398.01 21.5 2364.01 21.5"/></g><g id="LOT36"><rect class="cls-1" x="2398.01" y="1" width="50" height="85"/><polygon class="cls-1" points="2414.01 21.5 2414.01 65.5 2440.01 65.5 2440.01 53.5 2448.01 53.5 2448.01 21.5 2414.01 21.5"/></g><g id="LOT37"><rect class="cls-1" x="2448.01" y="1" width="50" height="85"/><polygon class="cls-1" points="2464.01 21.5 2464.01 65.5 2490.01 65.5 2490.01 53.5 2498.01 53.5 2498.01 21.5 2464.01 21.5"/></g><g id="LOT38"><rect class="cls-1" x="2498.01" y="1" width="50" height="85"/><polygon class="cls-1" points="2514.01 21.5 2514.01 65.5 2540.01 65.5 2540.01 53.5 2548.01 53.5 2548.01 21.5 2514.01 21.5"/></g><g id="LOT39"><rect class="cls-1" x="2548.01" y="1" width="50" height="85"/><polygon class="cls-1" points="2564.01 21.5 2564.01 65.5 2590.01 65.5 2590.01 53.5 2598.01 53.5 2598.01 21.5 2564.01 21.5"/></g><g id="LOT40"><rect class="cls-1" x="2598.01" y="1" width="50" height="85"/><polygon class="cls-1" points="2614.01 21.5 2614.01 65.5 2640.01 65.5 2640.01 53.5 2648.01 53.5 2648.01 21.5 2614.01 21.5"/></g><g id="LOT41"><rect class="cls-1" x="2648.01" y="1" width="64" height="85"/><polygon class="cls-1" points="2678.01 21.5 2678.01 65.5 2704.01 65.5 2704.01 53.5 2712.01 53.5 2712.01 21.5 2678.01 21.5"/></g><g id="LOT42"><rect class="cls-1" x="2712.01" y="1" width="64" height="85"/><polygon class="cls-1" points="2742.01 21.5 2742.01 65.5 2768.01 65.5 2768.01 53.5 2776.01 53.5 2776.01 21.5 2742.01 21.5"/></g><g id="LOT43"><rect class="cls-1" x="2776.01" y="1" width="50" height="85"/><polygon class="cls-1" points="2792.01 21.5 2792.01 65.5 2818.01 65.5 2818.01 53.5 2826.01 53.5 2826.01 21.5 2792.01 21.5"/></g><g id="LOT44"><rect class="cls-1" x="2826.01" y="1" width="50" height="85"/><polygon class="cls-1" points="2842.01 21.5 2842.01 65.5 2868.01 65.5 2868.01 53.5 2876.01 53.5 2876.01 21.5 2842.01 21.5"/></g><g id="LOT45"><rect class="cls-1" x="2876.01" y="1" width="50" height="85"/><polygon class="cls-1" points="2892.01 21.5 2892.01 65.5 2918.01 65.5 2918.01 53.5 2926.01 53.5 2926.01 21.5 2892.01 21.5"/></g><g id="LOT46"><rect class="cls-1" x="2926.01" y="1" width="50" height="85"/><polygon class="cls-1" points="2942.01 21.5 2942.01 65.5 2968.01 65.5 2968.01 53.5 2976.01 53.5 2976.01 21.5 2942.01 21.5"/></g><g id="LOT47"><polygon class="cls-1" points="2976.01 1 2976.01 86 2966.01 86 2966.01 122 3026.01 122 3026.01 1 2976.01 1"/><polygon class="cls-1" points="2992.01 21.5 2992.01 65.5 3018.01 65.5 3018.01 53.5 3026.01 53.5 3026.01 21.5 2992.01 21.5"/></g><g id="LOT48"><path class="cls-1" d="M3232.26,267.83h63.35a.32.32,0,0,1,.32.32V352.5a.32.32,0,0,1-.32.32h-48.67a15,15,0,0,1-15-15V268.15A.32.32,0,0,1,3232.26,267.83Z" transform="translate(3293.84 -3109.93) rotate(90)"/><polygon class="cls-1" points="3005.51 169 2961.51 169 2961.51 143 2973.51 143 2973.51 135 3005.51 135 3005.51 169"/></g><g id="LOT49"><rect class="cls-1" x="3238.93" y="324.83" width="50" height="85" transform="translate(3350.84 -3052.93) rotate(90)"/><polygon class="cls-1" points="3005.51 202 2961.51 202 2961.51 228 2973.51 228 2973.51 236 3005.51 236 3005.51 202"/></g><g id="LOT50"><rect class="cls-1" x="3238.93" y="374.83" width="50" height="85" transform="translate(3400.84 -3002.93) rotate(90)"/><polygon class="cls-1" points="3005.51 252 2961.51 252 2961.51 278 2973.51 278 2973.51 286 3005.51 286 3005.51 252"/></g><g id="LOT51"><rect class="cls-1" x="3231.93" y="431.83" width="64" height="85" transform="translate(2509.18 3581.93) rotate(-90)"/><polygon class="cls-1" points="3005.51 342 3005.51 316 3005.51 308 2973.51 308 2973.51 316 2961.51 316 2961.51 342 2973.51 342 2973.51 350 3005.51 350 3005.51 342"/></g><g id="LOT52"><rect class="cls-1" x="2905.01" y="350" width="121" height="50"/><polygon class="cls-1" points="3005.51 384 3005.51 358 3005.51 350 2973.51 350 2973.51 358 2961.51 358 2961.51 384 2973.51 384 2973.51 392 3005.51 392 3005.51 384"/></g><g id="LOT53"><path class="cls-1" d="M3121.43,471.33h64a0,0,0,0,1,0,0v85a0,0,0,0,1,0,0h-49a15,15,0,0,1-15-15v-70A0,0,0,0,1,3121.43,471.33Z" transform="translate(6026.44 871.33) rotate(-180)"/><polygon class="cls-1" points="2890 379.5 2890 335.5 2864 335.5 2864 347.5 2856 347.5 2856 379.5 2890 379.5"/></g><g id="LOT54"><rect class="cls-1" x="3057.43" y="471.33" width="64" height="85" transform="translate(5898.44 871.33) rotate(-180)"/><polygon class="cls-1" points="2796.01 379.5 2822.01 379.5 2830.01 379.5 2830.01 347.5 2822.01 347.5 2822.01 335.5 2796.01 335.5 2796.01 347.5 2788.01 347.5 2788.01 379.5 2796.01 379.5"/></g><g id="LOT55"><rect class="cls-1" x="2993.43" y="471.33" width="64" height="85" transform="translate(5770.44 871.33) rotate(-180)"/><polygon class="cls-1" points="2732.01 379.5 2758.01 379.5 2766.01 379.5 2766.01 347.5 2758.01 347.5 2758.01 335.5 2732.01 335.5 2732.01 347.5 2724.01 347.5 2724.01 379.5 2732.01 379.5"/></g><g id="LOT56"><rect class="cls-1" x="2929.43" y="471.33" width="64" height="85" transform="translate(5642.44 871.33) rotate(-180)"/><polygon class="cls-1" points="2668.01 379.5 2694.01 379.5 2702.01 379.5 2702.01 347.5 2694.01 347.5 2694.01 335.5 2668.01 335.5 2668.01 347.5 2660.01 347.5 2660.01 379.5 2668.01 379.5"/></g><g id="LOT57"><rect class="cls-1" x="2865.43" y="471.33" width="64" height="85" transform="translate(5514.44 871.33) rotate(-180)"/><polygon class="cls-1" points="2604.01 379.5 2630.01 379.5 2638.01 379.5 2638.01 347.5 2630.01 347.5 2630.01 335.5 2604.01 335.5 2604.01 347.5 2596.01 347.5 2596.01 379.5 2604.01 379.5"/></g><g id="LOT58"><rect class="cls-1" x="2815.43" y="471.33" width="50" height="85" transform="translate(5400.44 871.33) rotate(-180)"/><polygon class="cls-1" points="2569.01 379.5 2569.01 335.5 2543.01 335.5 2543.01 347.5 2535.01 347.5 2535.01 379.5 2569.01 379.5"/></g><g id="LOT59"><rect class="cls-1" x="2765.43" y="471.33" width="50" height="85" transform="translate(5300.44 871.33) rotate(-180)"/><polygon class="cls-1" points="2519.01 379.5 2519.01 335.5 2493.01 335.5 2493.01 347.5 2485.01 347.5 2485.01 379.5 2519.01 379.5"/></g><g id="LOT61"><rect class="cls-1" x="2715.43" y="471.33" width="50" height="85" transform="translate(5200.44 871.33) rotate(-180)"/><polygon class="cls-1" points="2469.01 379.5 2469.01 335.5 2443.01 335.5 2443.01 347.5 2435.01 347.5 2435.01 379.5 2469.01 379.5"/></g><g id="LOT62"><rect class="cls-1" x="2665.43" y="471.33" width="50" height="85" transform="translate(5100.44 871.33) rotate(-180)"/><polygon class="cls-1" points="2419.01 379.5 2419.01 335.5 2393.01 335.5 2393.01 347.5 2385.01 347.5 2385.01 379.5 2419.01 379.5"/></g><g id="LOT63"><rect class="cls-1" x="2615.43" y="471.33" width="50" height="85" transform="translate(5000.44 871.33) rotate(-180)"/><polygon class="cls-1" points="2369.01 379.5 2369.01 335.5 2343.01 335.5 2343.01 347.5 2335.01 347.5 2335.01 379.5 2369.01 379.5"/></g><g id="LOT64"><rect class="cls-1" x="2565.43" y="471.33" width="50" height="85" transform="translate(4900.44 871.33) rotate(-180)"/><polygon class="cls-1" points="2319.01 379.5 2319.01 335.5 2293.01 335.5 2293.01 347.5 2285.01 347.5 2285.01 379.5 2319.01 379.5"/></g><g id="LOT65"><rect class="cls-1" x="2515.43" y="471.33" width="50" height="85" transform="translate(4800.44 871.33) rotate(-180)"/><polygon class="cls-1" points="2269.01 379.5 2269.01 335.5 2243.01 335.5 2243.01 347.5 2235.01 347.5 2235.01 379.5 2269.01 379.5"/></g><g id="LOT66"><rect class="cls-1" x="2465.43" y="471.33" width="50" height="85" transform="translate(4700.44 871.33) rotate(-180)"/><polygon class="cls-1" points="2219.01 379.5 2219.01 335.5 2193.01 335.5 2193.01 347.5 2185.01 347.5 2185.01 379.5 2219.01 379.5"/></g><g id="LOT67"><rect class="cls-1" x="2415.43" y="471.33" width="50" height="85" transform="translate(4600.44 871.33) rotate(-180)"/><polygon class="cls-1" points="2169.01 379.5 2169.01 335.5 2143.01 335.5 2143.01 347.5 2135.01 347.5 2135.01 379.5 2169.01 379.5"/></g><g id="LOT68"><rect class="cls-1" x="2365.43" y="471.33" width="50" height="85" transform="translate(4500.44 871.33) rotate(-180)"/><polygon class="cls-1" points="2119.01 379.5 2119.01 335.5 2093.01 335.5 2093.01 347.5 2085.01 347.5 2085.01 379.5 2119.01 379.5"/></g><g id="LOT69"><rect class="cls-1" x="2315.43" y="471.33" width="50" height="85" transform="translate(4400.44 871.33) rotate(-180)"/><polygon class="cls-1" points="2069.01 379.5 2069.01 335.5 2043.01 335.5 2043.01 347.5 2035.01 347.5 2035.01 379.5 2069.01 379.5"/></g><g id="LOT70"><rect class="cls-1" x="2251.43" y="471.33" width="64" height="85" transform="translate(4286.44 871.33) rotate(-180)"/><polygon class="cls-1" points="2005.01 379.5 2005.01 335.5 1979.01 335.5 1979.01 347.5 1971.01 347.5 1971.01 379.5 2005.01 379.5"/></g></g><g id="BLK3"><g id="LOT1"><path class="cls-1" d="M2801.43,278.33h64a0,0,0,0,1,0,0v65a15,15,0,0,1-15,15h-49a0,0,0,0,1,0,0v-80A0,0,0,0,1,2801.43,278.33Z" transform="translate(5386.44 480.33) rotate(-180)"/><polygon class="cls-1" points="2540.01 184 2566.01 184 2574.01 184 2574.01 152 2566.01 152 2566.01 140 2540.01 140 2540.01 152 2532.01 152 2532.01 184 2540.01 184"/></g><g id="LOT2-2" data-name="LOT2"><rect class="cls-1" x="2585.01" y="122" width="64" height="80"/><polygon class="cls-1" points="2604.01 184 2630.01 184 2638.01 184 2638.01 152 2630.01 152 2630.01 140 2604.01 140 2604.01 152 2596.01 152 2596.01 184 2604.01 184"/></g><g id="LOT3-2" data-name="LOT3"><rect class="cls-1" x="2649.01" y="122" width="64" height="80"/><polygon class="cls-1" points="2668.01 184 2694.01 184 2702.01 184 2702.01 152 2694.01 152 2694.01 140 2668.01 140 2668.01 152 2660.01 152 2660.01 184 2668.01 184"/></g><g id="LOT5-2" data-name="LOT5"><rect class="cls-1" x="2713.01" y="122" width="64" height="80"/><polygon class="cls-1" points="2732.01 184 2758.01 184 2766.01 184 2766.01 152 2758.01 152 2758.01 140 2732.01 140 2732.01 152 2724.01 152 2724.01 184 2732.01 184"/></g><g id="LOT6-2" data-name="LOT6"><rect class="cls-1" x="2777.01" y="122" width="64" height="80"/><polygon class="cls-1" points="2796.01 184 2822.01 184 2830.01 184 2830.01 152 2822.01 152 2822.01 140 2796.01 140 2796.01 152 2788.01 152 2788.01 184 2796.01 184"/></g><g id="LOT7-2" data-name="LOT7"><path class="cls-1" d="M2841,122h49a15,15,0,0,1,15,15v65a0,0,0,0,1,0,0h-64a0,0,0,0,1,0,0V122A0,0,0,0,1,2841,122Z"/><polygon class="cls-1" points="2860 184 2886 184 2894 184 2894 152 2886 152 2886 140 2860 140 2860 152 2852 152 2852 184 2860 184"/></g><g id="LOT8-2" data-name="LOT8"><path class="cls-1" d="M2841,202h64a0,0,0,0,1,0,0v65a15,15,0,0,1-15,15h-49a0,0,0,0,1,0,0V202A0,0,0,0,1,2841,202Z"/><polygon class="cls-1" points="2856 220 2856 264 2882 264 2882 252 2890 252 2890 220 2856 220"/></g><g id="LOT9-2" data-name="LOT9"><rect class="cls-1" x="2789.81" y="202" width="51.2" height="80"/><polygon class="cls-1" points="2807.01 220 2833.01 220 2841.01 220 2841.01 252 2833.01 252 2833.01 264 2807.01 264 2807.01 252 2799.01 252 2799.01 220 2807.01 220"/></g><g id="LOT10-2" data-name="LOT10"><rect class="cls-1" x="2738.61" y="202" width="51.2" height="80"/><polygon class="cls-1" points="2755.81 220 2781.81 220 2789.81 220 2789.81 252 2781.81 252 2781.81 264 2755.81 264 2755.81 252 2747.81 252 2747.81 220 2755.81 220"/></g><g id="LOT11-2" data-name="LOT11"><rect class="cls-1" x="2687.41" y="202" width="51.2" height="80"/><polygon class="cls-1" points="2704.61 220 2730.61 220 2738.61 220 2738.61 252 2730.61 252 2730.61 264 2704.61 264 2704.61 252 2696.61 252 2696.61 220 2704.61 220"/></g><g id="LOT12-2" data-name="LOT12"><rect class="cls-1" x="2636.21" y="202" width="51.2" height="80"/><polygon class="cls-1" points="2653.41 220 2679.41 220 2687.41 220 2687.41 252 2679.41 252 2679.41 264 2653.41 264 2653.41 252 2645.41 252 2645.41 220 2653.41 220"/></g><g id="LOT14-2" data-name="LOT14"><rect class="cls-1" x="2585.01" y="202" width="51.2" height="80"/><polygon class="cls-1" points="2602.21 220 2628.21 220 2636.21 220 2636.21 252 2628.21 252 2628.21 264 2602.21 264 2602.21 252 2594.21 252 2594.21 220 2602.21 220"/></g><g id="LOT15-2" data-name="LOT15"><path class="cls-1" d="M2801.43,358.33h49a15,15,0,0,1,15,15v65a0,0,0,0,1,0,0h-64a0,0,0,0,1,0,0v-80A0,0,0,0,1,2801.43,358.33Z" transform="translate(5386.44 640.33) rotate(-180)"/><polygon class="cls-1" points="2570.01 220 2570.01 264 2544.01 264 2544.01 252 2536.01 252 2536.01 220 2570.01 220"/></g></g><g id="BLK4"><g id="LOT1-2" data-name="LOT1"><path class="cls-1" d="M2381.43,278.33h64a0,0,0,0,1,0,0v65a15,15,0,0,1-15,15h-49a0,0,0,0,1,0,0v-80A0,0,0,0,1,2381.43,278.33Z" transform="translate(4546.44 480.33) rotate(-180)"/><polygon class="cls-1" points="2120.01 184 2146.01 184 2154.01 184 2154.01 152 2146.01 152 2146.01 140 2120.01 140 2120.01 152 2112.01 152 2112.01 184 2120.01 184"/></g><g id="LOT2-3" data-name="LOT2"><rect class="cls-1" x="2165.01" y="122" width="64" height="80"/><polygon class="cls-1" points="2184.01 184 2210.01 184 2218.01 184 2218.01 152 2210.01 152 2210.01 140 2184.01 140 2184.01 152 2176.01 152 2176.01 184 2184.01 184"/></g><g id="LOT3-3" data-name="LOT3"><rect class="cls-1" x="2229.01" y="122" width="64" height="80"/><polygon class="cls-1" points="2248.01 184 2274.01 184 2282.01 184 2282.01 152 2274.01 152 2274.01 140 2248.01 140 2248.01 152 2240.01 152 2240.01 184 2248.01 184"/></g><g id="LOT5-3" data-name="LOT5"><rect class="cls-1" x="2293.01" y="122" width="64" height="80"/><polygon class="cls-1" points="2312.01 184 2338.01 184 2346.01 184 2346.01 152 2338.01 152 2338.01 140 2312.01 140 2312.01 152 2304.01 152 2304.01 184 2312.01 184"/></g><g id="LOT6-3" data-name="LOT6"><rect class="cls-1" x="2357.01" y="122" width="64" height="80"/><polygon class="cls-1" points="2376.01 184 2402.01 184 2410.01 184 2410.01 152 2402.01 152 2402.01 140 2376.01 140 2376.01 152 2368.01 152 2368.01 184 2376.01 184"/></g><g id="LOT7-3" data-name="LOT7"><path class="cls-1" d="M2421,122h49a15,15,0,0,1,15,15v65a0,0,0,0,1,0,0h-64a0,0,0,0,1,0,0V122A0,0,0,0,1,2421,122Z"/><polygon class="cls-1" points="2440 184 2466 184 2474 184 2474 152 2466 152 2466 140 2440 140 2440 152 2432 152 2432 184 2440 184"/></g><g id="LOT8-3" data-name="LOT8"><path class="cls-1" d="M2421,202h64a0,0,0,0,1,0,0v65a15,15,0,0,1-15,15h-49a0,0,0,0,1,0,0V202A0,0,0,0,1,2421,202Z"/><polygon class="cls-1" points="2436 220 2436 264 2462 264 2462 252 2470 252 2470 220 2436 220"/></g><g id="LOT9-3" data-name="LOT9"><rect class="cls-1" x="2369.81" y="202" width="51.2" height="80"/><polygon class="cls-1" points="2387.01 220 2413.01 220 2421.01 220 2421.01 252 2413.01 252 2413.01 264 2387.01 264 2387.01 252 2379.01 252 2379.01 220 2387.01 220"/></g><g id="LOT10-3" data-name="LOT10"><rect class="cls-1" x="2318.61" y="202" width="51.2" height="80"/><polygon class="cls-1" points="2335.81 220 2361.81 220 2369.81 220 2369.81 252 2361.81 252 2361.81 264 2335.81 264 2335.81 252 2327.81 252 2327.81 220 2335.81 220"/></g><g id="LOT11-3" data-name="LOT11"><rect class="cls-1" x="2267.41" y="202" width="51.2" height="80"/><polygon class="cls-1" points="2284.61 220 2310.61 220 2318.61 220 2318.61 252 2310.61 252 2310.61 264 2284.61 264 2284.61 252 2276.61 252 2276.61 220 2284.61 220"/></g><g id="LOT12-3" data-name="LOT12"><rect class="cls-1" x="2216.21" y="202" width="51.2" height="80"/><polygon class="cls-1" points="2233.41 220 2259.41 220 2267.41 220 2267.41 252 2259.41 252 2259.41 264 2233.41 264 2233.41 252 2225.41 252 2225.41 220 2233.41 220"/></g><g id="LOT14-3" data-name="LOT14"><rect class="cls-1" x="2165.01" y="202" width="51.2" height="80"/><polygon class="cls-1" points="2182.21 220 2208.21 220 2216.21 220 2216.21 252 2208.21 252 2208.21 264 2182.21 264 2182.21 252 2174.21 252 2174.21 220 2182.21 220"/></g><g id="LOT15-3" data-name="LOT15"><path class="cls-1" d="M2381.43,358.33h49a15,15,0,0,1,15,15v65a0,0,0,0,1,0,0h-64a0,0,0,0,1,0,0v-80A0,0,0,0,1,2381.43,358.33Z" transform="translate(4546.44 640.33) rotate(-180)"/><polygon class="cls-1" points="2150.01 220 2150.01 264 2124.01 264 2124.01 252 2116.01 252 2116.01 220 2150.01 220"/></g></g><g id="BLK1"><path id="BLANK" class="cls-2" d="M2201.43,471.33l2.79,40.08a9.9,9.9,0,0,0,6.22,8.52l4.53,1.8a10,10,0,0,1,5.87,6.35l4.91,16a10.19,10.19,0,0,0,1.62,3.14l4,5.18a10,10,0,0,0,7.95,3.93h12.16v-85Z" transform="translate(-280.43 -156.33)"/><g id="LOT1-3" data-name="LOT1"><polygon class="cls-1" points="2001.01 250 1921.01 250 1921.01 315 2017.01 315 2017.01 282 2001.01 282 2001.01 250"/><polygon class="cls-1" points="1939.01 269.5 1939.01 295.5 1939.01 303.5 1971.01 303.5 1971.01 295.5 1983.01 295.5 1983.01 269.5 1971.01 269.5 1971.01 261.5 1939.01 261.5 1939.01 269.5"/></g><g id="LOT2-4" data-name="LOT2"><rect class="cls-1" x="1921.01" y="186" width="80" height="64"/><polygon class="cls-1" points="1983.01 205 1983.01 231 1983.01 239 1951.01 239 1951.01 231 1939.01 231 1939.01 205 1951.01 205 1951.01 197 1983.01 197 1983.01 205"/></g><g id="LOT3-4" data-name="LOT3"><path class="cls-1" d="M1936,122h65a0,0,0,0,1,0,0v64a0,0,0,0,1,0,0h-80a0,0,0,0,1,0,0V137A15,15,0,0,1,1936,122Z"/><polygon class="cls-1" points="1983.01 141 1983.01 167 1983.01 175 1951.01 175 1951.01 167 1939.01 167 1939.01 141 1951.01 141 1951.01 133 1983.01 133 1983.01 141"/></g><g id="LOT4"><path class="cls-1" d="M2001,202h64a0,0,0,0,1,0,0v65a15,15,0,0,1-15,15h-49a0,0,0,0,1,0,0V202A0,0,0,0,1,2001,202Z"/><polygon class="cls-1" points="2011.01 229 2011.01 255 2011.01 263 2043.01 263 2043.01 255 2055.01 255 2055.01 229 2043.01 229 2043.01 221 2011.01 221 2011.01 229"/></g><g id="LOT5-4" data-name="LOT5"><path class="cls-1" d="M2001,122h49a15,15,0,0,1,15,15v65a0,0,0,0,1,0,0h-64a0,0,0,0,1,0,0V122A0,0,0,0,1,2001,122Z"/><polygon class="cls-1" points="2020 184 2046 184 2054 184 2054 152 2046 152 2046 140 2020 140 2020 152 2012 152 2012 184 2020 184"/></g></g><g id="BLK5"><path id="BLANK-2" data-name="BLANK" class="cls-2" d="M2135.43,471.33l-2.78,40.08a9.9,9.9,0,0,1-6.22,8.52l-4.53,1.8a10,10,0,0,0-5.87,6.35l-4.91,16a10.19,10.19,0,0,1-1.62,3.14l-4,5.18a10,10,0,0,1-7.94,3.93h-12.17v-85Z" transform="translate(-280.43 -156.33)"/><g id="LOT1-4" data-name="LOT1"><polygon class="cls-1" points="1775.01 250 1855.01 250 1855.01 315 1759.01 315 1759.01 282 1775.01 282 1775.01 250"/><polygon class="cls-1" points="1837.01 269.5 1837.01 295.5 1837.01 303.5 1805.01 303.5 1805.01 295.5 1793.01 295.5 1793.01 269.5 1805.01 269.5 1805.01 261.5 1837.01 261.5 1837.01 269.5"/></g><g id="LOT2-5" data-name="LOT2"><rect class="cls-1" x="2055.43" y="342.33" width="80" height="64" transform="translate(3910.44 592.33) rotate(-180)"/><polygon class="cls-1" points="1793.01 205 1793.01 231 1793.01 239 1825.01 239 1825.01 231 1837.01 231 1837.01 205 1825.01 205 1825.01 197 1793.01 197 1793.01 205"/></g><g id="LOT3-5" data-name="LOT3"><path class="cls-1" d="M2055.43,278.33h80a0,0,0,0,1,0,0v64a0,0,0,0,1,0,0h-65a15,15,0,0,1-15-15v-49A0,0,0,0,1,2055.43,278.33Z" transform="translate(3910.44 464.33) rotate(-180)"/><polygon class="cls-1" points="1793.01 141 1793.01 167 1793.01 175 1825.01 175 1825.01 167 1837.01 167 1837.01 141 1825.01 141 1825.01 133 1793.01 133 1793.01 141"/></g><g id="LOT4-2" data-name="LOT4"><path class="cls-1" d="M1991.43,358.33h49a15,15,0,0,1,15,15v65a0,0,0,0,1,0,0h-64a0,0,0,0,1,0,0v-80A0,0,0,0,1,1991.43,358.33Z" transform="translate(3766.44 640.33) rotate(-180)"/><polygon class="cls-1" points="1765.01 229 1765.01 255 1765.01 263 1733.01 263 1733.01 255 1721.01 255 1721.01 229 1733.01 229 1733.01 221 1765.01 221 1765.01 229"/></g><g id="LOT5-5" data-name="LOT5"><path class="cls-1" d="M1991.43,278.33h64a0,0,0,0,1,0,0v65a15,15,0,0,1-15,15h-49a0,0,0,0,1,0,0v-80A0,0,0,0,1,1991.43,278.33Z" transform="translate(3766.44 480.33) rotate(-180)"/><polygon class="cls-1" points="1756.02 184 1730.02 184 1722.02 184 1722.02 152 1730.02 152 1730.02 140 1756.02 140 1756.02 152 1764.02 152 1764.02 184 1756.02 184"/></g></g><g id="BLK6"><g id="LOT2-6" data-name="LOT2"><rect class="cls-1" x="1741.01" y="315" width="64" height="85"/><polygon class="cls-1" points="1756.01 379.5 1756.01 335.5 1782.01 335.5 1782.01 347.5 1790.01 347.5 1790.01 379.5 1756.01 379.5"/></g><g id="LOT3-6" data-name="LOT3"><rect class="cls-1" x="1691.01" y="315" width="50" height="85"/><polygon class="cls-1" points="1707.01 379.5 1707.01 335.5 1733.01 335.5 1733.01 347.5 1741.01 347.5 1741.01 379.5 1707.01 379.5"/></g><g id="LOT5-6" data-name="LOT5"><rect class="cls-1" x="1641.01" y="315" width="50" height="85"/><polygon class="cls-1" points="1657.01 379.5 1657.01 335.5 1683.01 335.5 1683.01 347.5 1691.01 347.5 1691.01 379.5 1657.01 379.5"/></g><g id="LOT6-4" data-name="LOT6"><rect class="cls-1" x="1591.01" y="315" width="50" height="85"/><polygon class="cls-1" points="1607.01 379.5 1607.01 335.5 1633.01 335.5 1633.01 347.5 1641.01 347.5 1641.01 379.5 1607.01 379.5"/></g><g id="LOT7-4" data-name="LOT7"><rect class="cls-1" x="1541.01" y="315" width="50" height="85"/><polygon class="cls-1" points="1557.01 379.5 1557.01 335.5 1583.01 335.5 1583.01 347.5 1591.01 347.5 1591.01 379.5 1557.01 379.5"/></g><g id="LOT8-4" data-name="LOT8"><rect class="cls-1" x="1491.01" y="315" width="50" height="85"/><polygon class="cls-1" points="1507.01 379.5 1507.01 335.5 1533.01 335.5 1533.01 347.5 1541.01 347.5 1541.01 379.5 1507.01 379.5"/></g><g id="LOT9-4" data-name="LOT9"><rect class="cls-1" x="1707.43" y="471.33" width="64" height="85" transform="translate(3198.44 871.33) rotate(180)"/><polygon class="cls-1" points="1446.01 379.5 1472.01 379.5 1480.01 379.5 1480.01 347.5 1472.01 347.5 1472.01 335.5 1446.01 335.5 1446.01 347.5 1438.01 347.5 1438.01 379.5 1446.01 379.5"/></g><g id="LOT10-4" data-name="LOT10"><rect class="cls-1" x="1643.43" y="471.33" width="64" height="85" transform="translate(3070.44 871.33) rotate(180)"/><polygon class="cls-1" points="1382.01 379.5 1408.01 379.5 1416.01 379.5 1416.01 347.5 1408.01 347.5 1408.01 335.5 1382.01 335.5 1382.01 347.5 1374.01 347.5 1374.01 379.5 1382.01 379.5"/></g><g id="LOT11-4" data-name="LOT11"><rect class="cls-1" x="1579.43" y="471.33" width="64" height="85" transform="translate(2942.44 871.33) rotate(180)"/><polygon class="cls-1" points="1318.01 379.5 1344.01 379.5 1352.01 379.5 1352.01 347.5 1344.01 347.5 1344.01 335.5 1318.01 335.5 1318.01 347.5 1310.01 347.5 1310.01 379.5 1318.01 379.5"/></g><g id="LOT12-4" data-name="LOT12"><rect class="cls-1" x="1515.43" y="471.33" width="64" height="85" transform="translate(2814.44 871.33) rotate(180)"/><polygon class="cls-1" points="1254.01 379.5 1280.01 379.5 1288.01 379.5 1288.01 347.5 1280.01 347.5 1280.01 335.5 1254.01 335.5 1254.01 347.5 1246.01 347.5 1246.01 379.5 1254.01 379.5"/></g><g id="LOT15-4" data-name="LOT15"><rect class="cls-1" x="1185.01" y="315" width="50" height="85"/><polygon class="cls-1" points="1201.01 379.5 1201.01 335.5 1227.01 335.5 1227.01 347.5 1235.01 347.5 1235.01 379.5 1201.01 379.5"/></g><g id="LOT16-2" data-name="LOT16"><rect class="cls-1" x="1135.01" y="315" width="50" height="85"/><polygon class="cls-1" points="1151.01 379.5 1151.01 335.5 1177.01 335.5 1177.01 347.5 1185.01 347.5 1185.01 379.5 1151.01 379.5"/></g><g id="LOT17-2" data-name="LOT17"><path class="cls-1" d="M1355.62,470.07l-6.17,84.67c21,1.19,43,1.77,66,1.59v-85C1394.71,471.49,1374.79,471,1355.62,470.07Z" transform="translate(-280.43 -156.33)"/><polygon class="cls-1" points="1101.01 378.89 1101.01 334.88 1127.01 334.88 1127.01 346.88 1135.01 346.88 1135.01 378.89 1101.01 378.89"/></g><g id="LOT18-2" data-name="LOT18"><path class="cls-1" d="M1292.77,464.87l-12.24,83.51c21.7,2.81,44.69,5,68.92,6.36l6.17-84.67C1333.65,469,1312.69,467.18,1292.77,464.87Z" transform="translate(-280.43 -156.33)"/><polygon class="cls-1" points="1036.48 375.11 1039.68 331.22 1065.61 333.11 1064.74 345.08 1072.72 345.66 1070.39 377.58 1036.48 375.11"/></g><g id="LOT19-2" data-name="LOT19"><path class="cls-1" d="M1230.32,455.47l-18.06,81.44c21.16,4.4,43.91,8.32,68.27,11.47l12.24-83.51C1270.7,462.31,1249.88,459.12,1230.32,455.47Z" transform="translate(-280.43 -156.33)"/><polygon class="cls-1" points="969.44 365.65 975.82 322.11 1001.55 325.88 999.8 337.75 1007.72 338.91 1003.08 370.58 969.44 365.65"/></g><g id="LOT20-2" data-name="LOT20"><path class="cls-1" d="M1164.58,440.58l-23.47,78.35c21.26,6.36,45,12.53,71.15,18l18.06-81.44C1206.54,451,1184.64,446,1164.58,440.58Z" transform="translate(-280.43 -156.33)"/><polygon class="cls-1" points="903.28 351.75 912.81 308.79 938.2 314.42 935.6 326.14 943.41 327.87 936.47 359.12 903.28 351.75"/></g><g id="LOT21-2" data-name="LOT21"><path class="cls-1" d="M1125.84,429.22a15,15,0,0,1-9-7.89h-18.44l-22.51,75.17q11.77,4.61,24.08,9c5,1.76,10.11,3.54,15.43,5.32q12.18,4.06,25.68,8.11l23.47-78.35C1150.79,436.89,1137.87,433.06,1125.84,429.22Z" transform="translate(-280.43 -156.33)"/><polygon class="cls-1" points="832.96 333.71 845.58 291.55 820.67 284.1 817.23 295.6 809.56 293.3 800.39 323.97 832.96 333.71"/></g><g id="LOT22-2" data-name="LOT22"><path class="cls-1" d="M1116.87,421.33a15,15,0,0,1-1.44-6.39V397.33h-80v30l-13.7,45.74c17.16,8.17,35.17,16,54.19,23.43l22.51-75.17Z" transform="translate(-280.43 -156.33)"/><polygon class="cls-1" points="768.7 311.05 781.33 268.89 806.24 276.36 802.79 287.85 810.46 290.15 801.27 320.81 768.7 311.05"/></g><g id="LOT23-2" data-name="LOT23"><polygon class="cls-1" points="835.01 241 835.01 186 755.01 186 755.01 202 755.01 241 835.01 241"/><polygon class="cls-1" points="773 220 817.01 220 817.01 194 805.01 194 805.01 186 773 186 773 220"/></g><g id="LOT24-2" data-name="LOT24"><path class="cls-1" d="M1035.43,278.33h80a0,0,0,0,1,0,0v64a0,0,0,0,1,0,0h-65a15,15,0,0,1-15-15v-49A0,0,0,0,1,1035.43,278.33Z" transform="translate(1870.44 464.33) rotate(-180)"/><polygon class="cls-1" points="773 141 773 167 773 175 805.01 175 805.01 167 817.01 167 817.01 141 805.01 141 805.01 133 773 133 773 141"/></g><g id="LOT25-2" data-name="LOT25"><path class="cls-1" d="M971.43,278.33h64a0,0,0,0,1,0,0v65a15,15,0,0,1-15,15h-49a0,0,0,0,1,0,0v-80A0,0,0,0,1,971.43,278.33Z" transform="translate(1726.44 480.33) rotate(-180)"/><polygon class="cls-1" points="736.02 184 710.02 184 702.02 184 702.02 152 710.02 152 710.02 140 736.02 140 736.02 152 744.02 152 744.02 184 736.02 184"/></g><g id="LOT26-2" data-name="LOT26"><path class="cls-1" d="M971.43,358.33V447q19.46,10.91,40.37,21.24,4.92,2.43,9.93,4.81l13.7-45.74v-69Z" transform="translate(-280.43 -156.33)"/><polygon class="cls-1" points="721.01 263 721.01 219 747.01 219 747.01 231 755.01 231 755.01 263 721.01 263"/></g></g><g id="BLK7"><g id="LOT1-5" data-name="LOT1"><path class="cls-1" d="M1667.43,278.33h-81a15,15,0,0,0-15,15v65h96Z" transform="translate(-280.43 -156.33)"/><polygon class="cls-1" points="1361.01 149 1361.01 175 1361.01 183 1329.01 183 1329.01 175 1317.01 175 1317.01 149 1329.01 149 1329.01 141 1361.01 141 1361.01 149"/></g><g id="LOT2-7" data-name="LOT2"><rect class="cls-1" x="1387.01" y="122" width="64" height="80"/><polygon class="cls-1" points="1406.01 184 1432.01 184 1440.01 184 1440.01 152 1432.01 152 1432.01 140 1406.01 140 1406.01 152 1398.01 152 1398.01 184 1406.01 184"/></g><g id="LOT3-7" data-name="LOT3"><rect class="cls-1" x="1451.01" y="122" width="64" height="80"/><polygon class="cls-1" points="1470.01 184 1496.01 184 1504.01 184 1504.01 152 1496.01 152 1496.01 140 1470.01 140 1470.01 152 1462.01 152 1462.01 184 1470.01 184"/></g><g id="LOT5-7" data-name="LOT5"><rect class="cls-1" x="1515.01" y="122" width="64" height="80"/><polygon class="cls-1" points="1534.01 184 1560.01 184 1568.01 184 1568.01 152 1560.01 152 1560.01 140 1534.01 140 1534.01 152 1526.01 152 1526.01 184 1534.01 184"/></g><g id="LOT6-5" data-name="LOT6"><path class="cls-1" d="M1940.43,278.33h-81v80h96v-65A15,15,0,0,0,1940.43,278.33Z" transform="translate(-280.43 -156.33)"/><polygon class="cls-1" points="1605.01 149 1605.01 175 1605.01 183 1637.01 183 1637.01 175 1649.01 175 1649.01 149 1637.01 149 1637.01 141 1605.01 141 1605.01 149"/></g><g id="LOT7-5" data-name="LOT7"><path class="cls-1" d="M1900.58,358.33h54.85v65a15,15,0,0,1-15,15h-39.85Z" transform="translate(-280.43 -156.33)"/><polygon class="cls-1" points="1654.15 220 1654.15 264 1628.15 264 1628.15 252 1620.15 252 1620.15 220 1654.15 220"/></g><g id="LOT8-5" data-name="LOT8"><rect class="cls-1" x="1565.29" y="202" width="54.86" height="80"/><polygon class="cls-1" points="1586.15 220 1612.15 220 1620.15 220 1620.15 252 1612.15 252 1612.15 264 1586.15 264 1586.15 252 1578.15 252 1578.15 220 1586.15 220"/></g><g id="LOT9-5" data-name="LOT9"><rect class="cls-1" x="1510.44" y="202" width="54.86" height="80"/><polygon class="cls-1" points="1531.3 220 1557.3 220 1565.3 220 1565.3 252 1557.3 252 1557.3 264 1531.3 264 1531.3 252 1523.3 252 1523.3 220 1531.3 220"/></g><g id="LOT10-5" data-name="LOT10"><rect class="cls-1" x="1455.58" y="202" width="54.86" height="80"/><polygon class="cls-1" points="1476.44 220 1502.44 220 1510.44 220 1510.44 252 1502.44 252 1502.44 264 1476.44 264 1476.44 252 1468.44 252 1468.44 220 1476.44 220"/></g><g id="LOT11-5" data-name="LOT11"><rect class="cls-1" x="1400.72" y="202" width="54.86" height="80"/><polygon class="cls-1" points="1421.58 220 1447.58 220 1455.58 220 1455.58 252 1447.58 252 1447.58 264 1421.58 264 1421.58 252 1413.58 252 1413.58 220 1421.58 220"/></g><g id="LOT12-5" data-name="LOT12"><rect class="cls-1" x="1345.87" y="202" width="54.86" height="80"/><polygon class="cls-1" points="1366.72 220 1392.72 220 1400.72 220 1400.72 252 1392.72 252 1392.72 264 1366.72 264 1366.72 252 1358.72 252 1358.72 220 1366.72 220"/></g><g id="LOT14-4" data-name="LOT14"><path class="cls-1" d="M1571.43,358.33h54.86v80h-39.86a15,15,0,0,1-15-15Z" transform="translate(-280.43 -156.33)"/><polygon class="cls-1" points="1311.87 220 1311.87 264 1337.87 264 1337.87 252 1345.87 252 1345.87 220 1311.87 220"/></g></g><g id="BLK8"><g id="LOT1-6" data-name="LOT1"><path class="cls-1" d="M1247.43,278.33h-66.11a30,30,0,0,0-29.89,29.89v50.11h96Z" transform="translate(-280.43 -156.33)"/><polygon class="cls-1" points="906.01 184 932.01 184 940.01 184 940.01 152 932.01 152 932.01 140 906.01 140 906.01 152 898.01 152 898.01 184 906.01 184"/></g><g id="LOT2-8" data-name="LOT2"><polygon class="cls-1" points="971.01 202 1025.87 202 1031.01 202 1031.01 122 967.01 122 967.01 202 971.01 202"/><polygon class="cls-1" points="986.01 184 1012.01 184 1020.01 184 1020.01 152 1012.01 152 1012.01 140 986.01 140 986.01 152 978.01 152 978.01 184 986.01 184"/></g><g id="LOT3-8" data-name="LOT3"><polygon class="cls-1" points="1080.72 202 1095.01 202 1095.01 122 1031.01 122 1031.01 202 1080.72 202"/><polygon class="cls-1" points="1050.01 184 1076.01 184 1084.01 184 1084.01 152 1076.01 152 1076.01 140 1050.01 140 1050.01 152 1042.01 152 1042.01 184 1050.01 184"/></g><g id="LOT5-8" data-name="LOT5"><polygon class="cls-1" points="1135.58 202 1159.01 202 1159.01 122 1095.01 122 1095.01 202 1135.58 202"/><polygon class="cls-1" points="1114.01 184 1140.01 184 1148.01 184 1148.01 152 1140.01 152 1140.01 140 1114.01 140 1114.01 152 1106.01 152 1106.01 184 1114.01 184"/></g><g id="LOT6-6" data-name="LOT6"><path class="cls-1" d="M1505.55,278.33h-66.12v80h96V308.22A30,30,0,0,0,1505.55,278.33Z" transform="translate(-280.43 -156.33)"/><polygon class="cls-1" points="1194.44 184 1220.44 184 1228.44 184 1228.44 152 1220.44 152 1220.44 140 1194.44 140 1194.44 152 1186.44 152 1186.44 184 1194.44 184"/></g><g id="LOT7-6" data-name="LOT7"><path class="cls-1" d="M1470.86,438.33h34.69a30,30,0,0,0,29.88-29.89V358.33h-64.57Z" transform="translate(-280.43 -156.33)"/><polygon class="cls-1" points="1224.44 220 1224.44 264 1198.44 264 1198.44 252 1190.44 252 1190.44 220 1224.44 220"/></g><g id="LOT8-6" data-name="LOT8"><polygon class="cls-1" points="1159.01 202 1135.58 202 1135.58 282 1190.44 282 1190.44 202 1159.01 202"/><polygon class="cls-1" points="1156.44 220 1182.44 220 1190.44 220 1190.44 252 1182.44 252 1182.44 264 1156.44 264 1156.44 252 1148.44 252 1148.44 220 1156.44 220"/></g><g id="LOT9-6" data-name="LOT9"><path class="cls-1" d="M1375.43,358.33h-14.28v79q19,.85,39,1H1416v-80Z" transform="translate(-280.43 -156.33)"/><polygon class="cls-1" points="1101.58 220 1127.58 220 1135.58 220 1135.58 252 1127.58 252 1127.58 264 1101.58 264 1101.58 252 1093.58 252 1093.58 220 1101.58 220"/></g><g id="LOT10-6" data-name="LOT10"><path class="cls-1" d="M1306.29,358.33v75q26.3,2.67,54.86,4v-79h-54.86Z" transform="translate(-280.43 -156.33)"/><polygon class="cls-1" points="1046.72 220 1072.72 220 1080.72 220 1080.72 252 1072.72 252 1072.72 264 1046.72 264 1046.72 252 1038.72 252 1038.72 220 1046.72 220"/></g><g id="LOT11-6" data-name="LOT11"><path class="cls-1" d="M1251.43,358.33v67.81c17.39,2.81,35.67,5.26,54.86,7.2v-75Z" transform="translate(-280.43 -156.33)"/><polygon class="cls-1" points="991.87 220 1017.87 220 1025.87 220 1025.87 252 1017.87 252 1017.87 264 991.87 264 991.87 252 983.87 252 983.87 220 991.87 220"/></g><g id="LOT12-6" data-name="LOT12"><path class="cls-1" d="M1162.52,407a876.61,876.61,0,0,0,88.91,19.1V358.33h-100v34.22A15,15,0,0,0,1162.52,407Z" transform="translate(-280.43 -156.33)"/><polygon class="cls-1" points="953.01 236 909 236 909 210 921 210 921 202 953.01 202 953.01 236"/></g></g><g id="EXTRA"><g id="BOTTOM"><path class="cls-3" d="M280.43,307.33c53.81-1,138.77,2.37,236.93,29.66C772.65,408,850.2,566.66,1100,655.5c68.7,24.43,174,52,315.43,50.83h0" transform="translate(-280.43 -156.33)"/><path class="cls-3" d="M3306.43,701.33h-1891C1274,702.46,1168.7,674.93,1100,650.5,850.2,561.66,772.65,403,517.36,332c-98.16-27.29-183.12-30.64-236.93-29.66" transform="translate(-280.43 -156.33)"/><path class="cls-3" d="M280.43,297.33c53.81-1,138.77,2.37,236.93,29.66C772.65,398,850.2,556.66,1100,645.5c68.7,24.43,174,52,315.43,50.83h1891" transform="translate(-280.43 -156.33)"/></g><g id="MIDDLE"><path class="cls-3" d="M280.43,227.33c53.81-1,138.77,2.37,236.93,29.66C772.65,328,850.2,486.66,1100,575.5c68.7,24.43,174,52,315.43,50.83h690a5,5,0,0,1,5,5h0a5,5,0,0,1-5,5h-690C1274,637.46,1168.7,609.93,1100,585.5,850.2,496.66,772.65,338,517.36,267c-98.16-27.29-183.12-30.64-236.93-29.66" transform="translate(-280.43 -156.33)"/><path class="cls-3" d="M3306.43,626.36h-1075a5,5,0,0,0-5,5h0a5,5,0,0,0,5,5h1075" transform="translate(-280.43 -156.33)"/></g><g id="TOP"><path class="cls-3" d="M280.43,157.33c53.81-1,138.77,2.37,236.93,29.66C772.65,258,850.2,416.66,1100,505.5c68.7,24.43,174,52,315.43,50.83" transform="translate(-280.43 -156.33)"/><path class="cls-3" d="M280.43,162.33c53.81-1,138.77,2.37,236.93,29.66C772.65,263,850.2,421.66,1100,510.5c68.7,24.43,174,52,315.43,50.83" transform="translate(-280.43 -156.33)"/><path class="cls-3" d="M280.43,167.33c53.81-1,138.77,2.37,236.93,29.66C772.65,268,850.2,426.66,1100,515.5c68.7,24.43,174,52,315.43,50.83" transform="translate(-280.43 -156.33)"/><path class="cls-3" d="M1415.43,561.33h686.39a15,15,0,0,0,13-7.44l1.49-2.55a15.33,15.33,0,0,0,1.68-4.28l2.37-10.57a15,15,0,0,1,7.6-10l3-1.58a15,15,0,0,0,7.93-12.32l2.55-40.83c0-.31,0-.62,0-.93V293.33a15,15,0,0,0-15-15h-6" transform="translate(-280.43 -156.33)"/><path class="cls-3" d="M2216.3,278.33h-6a15,15,0,0,0-15,15V470.86q0,.47,0,.93l2.54,40.83a15,15,0,0,0,7.94,12.32l3,1.58a15,15,0,0,1,7.6,10l2.37,10.57a15.33,15.33,0,0,0,1.68,4.28l1.49,2.55a15,15,0,0,0,13,7.44H3306.43" transform="translate(-280.43 -156.33)"/><path class="cls-3" d="M1415.43,566.33h688.39a15,15,0,0,0,14.93-13.56l1.57-16.28" transform="translate(-280.43 -156.33)"/><path class="cls-3" d="M2216.48,536.49l1.58,16.28A15,15,0,0,0,2233,566.33H3306.43" transform="translate(-280.43 -156.33)"/><line class="cls-3" x1="0.01" y1="1" x2="720.01" y2="1"/></g><path id="INSIDE" class="cls-3" d="M971.43,397.33h-36v-155h2272v2a3,3,0,0,1-3,3h-2269" transform="translate(-280.43 -156.33)"/><g id="COURT"><rect class="cls-4" x="719.19" y="213.24" width="186.12" height="99" transform="translate(-40.24 -527.25) rotate(30)"/><line class="cls-4" x1="556.58" y1="63.54" x2="507.08" y2="149.28"/><path class="cls-4" d="M845.26,281.8c9.41-16.3,27.15-25,45.4-24.1l24,13.84L871.07,347l-24-13.84C837.22,317.78,835.85,298.09,845.26,281.8Z" transform="translate(-280.43 -156.33)"/><rect class="cls-4" x="857.75" y="284.02" width="37.62" height="31.68" transform="translate(-13.06 -554.43) rotate(30)"/><path class="cls-4" d="M850,284.52a11.88,11.88,0,0,0,4.35,16.23l11.88-20.58A11.88,11.88,0,0,0,850,284.52Z" transform="translate(-280.43 -156.33)"/><path class="cls-4" d="M866.21,280.17l-11.88,20.58a11.88,11.88,0,0,0,11.88-20.58Z" transform="translate(-280.43 -156.33)"/><line class="cls-4" x1="602.59" y1="154.13" x2="608.53" y2="143.84"/><circle class="cls-4" cx="604.27" cy="148.24" r="1.49"/><path class="cls-4" d="M779.24,243.68c9.41-16.3,8-36-1.83-51.36l-24-13.84-43.56,75.45,24,13.84C752.1,268.64,769.83,260,779.24,243.68Z" transform="translate(-280.43 -156.33)"/><rect class="cls-4" x="729.14" y="209.77" width="37.62" height="31.68" transform="translate(-67.41 -500.08) rotate(30)"/><path class="cls-4" d="M770.18,224.73,758.3,245.31a11.88,11.88,0,0,0,11.88-20.58Z" transform="translate(-280.43 -156.33)"/><path class="cls-4" d="M758.3,245.31l11.88-20.58a11.88,11.88,0,1,0-11.88,20.58Z" transform="translate(-280.43 -156.33)"/><line class="cls-4" x1="455.12" y1="68.99" x2="461.06" y2="58.7"/><circle class="cls-4" cx="459.38" cy="64.58" r="1.49"/></g><g id="NOT_SUREV"><polygon points="695.01 22.98 695.01 64.98 653.01 64.98 653.01 44.86 667.8 44.86 667.8 22.98 695.01 22.98"/><rect class="cls-3" x="601.8" y="0.86" width="66" height="44"/><polygon points="630.84 44.86 604.5 71.2 573.39 40.08 601.8 11.67 601.8 44.86 630.84 44.86"/></g></g></svg>