<svg xmlns="http://www.w3.org/2000/svg" viewBox="0 0 3026.01 410.18"><defs><style>.cls-1{fill:none;stroke:#000;stroke-miterlimit:10;}</style></defs><title>BOTTOM ROADLINE</title><g id="Layer_2" data-name="Layer 2"><g id="Layer_1-2" data-name="Layer 1"><g id="EXTRA"><g id="BOTTOM_ROADLINE" data-name="BOTTOM ROADLINE"><path class="cls-1" d="M0,10.64c53.81-1,138.76,2.38,236.92,29.67,255.3,71,332.84,229.67,582.64,318.51,68.7,24.43,174,52,315.44,50.82h0"/><path class="cls-1" d="M3026,404.64H1135c-141.45,1.14-246.74-26.39-315.44-50.82C569.77,265,492.23,106.3,236.93,35.31,138.77,8,53.82,4.67,0,5.64"/><path class="cls-1" d="M0,.64C53.82-.33,138.77,3,236.93,30.31c255.3,71,332.84,229.67,582.64,318.51,68.7,24.43,174,52,315.44,50.82H3026"/></g></g></g></g></svg>