<svg xmlns="http://www.w3.org/2000/svg" viewBox="0 0 212.05 180.16"><defs><style>.cls-1{fill:none;stroke:#231f20;stroke-miterlimit:10;}</style></defs><title>COURT</title><g id="Layer_2" data-name="Layer 2"><g id="Layer_1-2" data-name="Layer 1"><g id="EXTRA"><g id="COURT"><rect class="cls-1" x="12.97" y="40.58" width="186.12" height="99" transform="translate(59.25 -40.94) rotate(30)"/><line class="cls-1" x1="130.78" y1="47.21" x2="81.28" y2="132.95"/><path class="cls-1" d="M139,109.14c9.41-16.3,27.15-25,45.4-24.09l24,13.84-43.56,75.45-24-13.84C131,145.13,129.62,125.44,139,109.14Z"/><rect class="cls-1" x="151.52" y="111.37" width="37.62" height="31.68" transform="translate(86.42 -68.12) rotate(30)"/><path class="cls-1" d="M143.75,111.86a11.89,11.89,0,0,0,4.35,16.23L160,107.51A11.89,11.89,0,0,0,143.75,111.86Z"/><path class="cls-1" d="M160,107.51,148.1,128.09A11.88,11.88,0,1,0,160,107.51Z"/><line class="cls-1" x1="176.79" y1="137.8" x2="182.73" y2="127.51"/><circle class="cls-1" cx="178.47" cy="131.91" r="1.49"/><path class="cls-1" d="M73,71c9.41-16.3,8-36-1.84-51.35l-24-13.84L3.65,81.28l24,13.83C45.87,96,63.61,87.32,73,71Z"/><rect class="cls-1" x="22.91" y="37.12" width="37.62" height="31.68" transform="translate(32.07 -13.77) rotate(30)"/><path class="cls-1" d="M64,52.07,52.07,72.65A11.88,11.88,0,1,0,64,52.07Z"/><path class="cls-1" d="M52.07,72.65,64,52.07A11.88,11.88,0,0,0,52.07,72.65Z"/><line class="cls-1" x1="29.32" y1="52.66" x2="35.26" y2="42.37"/><circle class="cls-1" cx="33.58" cy="48.25" r="1.49"/></g></g></g></g></svg>