<svg xmlns="http://www.w3.org/2000/svg" viewBox="0 0 3026.01 410.18"><defs><style>.cls-1{fill:none;stroke:#000;stroke-miterlimit:10;}</style></defs><title>MIDDLE ROADLINE</title><g id="Layer_2" data-name="Layer 2"><g id="Layer_1-2" data-name="Layer 1"><g id="EXTRA"><g id="MIDDLE_ROADLINE" data-name="MIDDLE ROADLINE"><path class="cls-1" d="M0,.64C53.82-.33,138.77,3,236.93,30.31c255.3,71,332.84,229.67,582.64,318.51,68.7,24.43,174,52,315.44,50.82h690a5,5,0,0,1,5,5h0a5,5,0,0,1-5,5H1135c-141.45,1.14-246.74-26.39-315.44-50.82C569.77,270,492.23,111.3,236.93,40.31,138.77,13,53.82,9.67,0,10.64"/><path class="cls-1" d="M3026,399.68H1951a5,5,0,0,0-5,5h0a5,5,0,0,0,5,5H3026"/></g></g></g></g></svg>