<svg xmlns="http://www.w3.org/2000/svg" viewBox="0 0 3026.01 410.18"><defs><style>.cls-1{fill:none;stroke:#000;stroke-miterlimit:10;}</style></defs><title>TOP ROADLINE</title><g id="Layer_2" data-name="Layer 2"><g id="Layer_1-2" data-name="Layer 1"><g id="EXTRA"><g id="TOP_ROADLINE" data-name="TOP ROADLINE"><path class="cls-1" d="M0,.64C53.82-.33,138.77,3,236.93,30.31c255.3,71,332.84,229.67,582.64,318.51,68.7,24.43,174,52,315.44,50.82"/><path class="cls-1" d="M0,5.64C53.82,4.67,138.77,8,236.93,35.31c255.3,71,332.84,229.67,582.64,318.51,68.7,24.43,174,52,315.44,50.82"/><path class="cls-1" d="M0,10.64c53.81-1,138.76,2.38,236.92,29.67,255.3,71,332.84,229.67,582.64,318.51,68.7,24.43,174,52,315.44,50.82"/><path class="cls-1" d="M1135,404.64H1821.4a15,15,0,0,0,12.95-7.43l1.49-2.55a15,15,0,0,0,1.68-4.28l2.37-10.58a15,15,0,0,1,7.6-10l3-1.58a15,15,0,0,0,7.94-12.32l2.54-40.83q0-.47,0-.93V136.65a15,15,0,0,0-15-15h-6"/><path class="cls-1" d="M1935.88,121.64h-6a15,15,0,0,0-15,15V314.18q0,.46,0,.93l2.54,40.83a15,15,0,0,0,7.93,12.32l3,1.58a15,15,0,0,1,7.6,10l2.37,10.58a15.05,15.05,0,0,0,1.69,4.28l1.49,2.55a15,15,0,0,0,13,7.43H3026"/><path class="cls-1" d="M1135,409.64H1823.4a15,15,0,0,0,14.92-13.55l1.57-16.29"/><path class="cls-1" d="M1936.06,379.8l1.57,16.29a15,15,0,0,0,14.93,13.55H3026"/><line class="cls-1" x1="0.01" y1="0.64" x2="720.01" y2="0.64"/></g></g></g></g></svg>